<svg id="Capa_1" enable-background="new 0 0 512 512" height="512" viewBox="0 0 512 512" width="512" xmlns="http://www.w3.org/2000/svg"><g><path style="fill:#fff;" d="m496.994 69.292c-.357-20.426-16.101-37.169-36.11-39.104-9.261-18.326-28.06-30.188-48.884-30.188s-39.623 11.862-48.884 30.188c-20.01 1.936-35.753 18.679-36.11 39.104-9.395 7.531-15.006 18.774-15.006 30.708 0 22.056 17.944 40 40 40h120c22.056 0 40-17.944 40-40 0-11.934-5.611-23.177-15.006-30.708zm-24.994 50.708h-120c-11.028 0-20-8.972-20-20 0-7.101 3.977-13.526 10.637-17.187 4.008-2.203 6.275-6.517 4.431-13.092-.02-.072-.041-.144-.062-.216.256-10.523 8.68-19.057 19.159-19.488 6.459 1.728 11.321-1.68 12.888-6.264 4.856-14.207 18.096-23.753 32.947-23.753s28.091 9.546 32.947 23.754c1.581 4.628 6.407 7.998 12.888 6.264 10.479.432 18.903 8.965 19.159 19.488-.021.072-.042.144-.062.216-1.844 6.574.421 10.888 4.431 13.092 6.66 3.66 10.637 10.085 10.637 17.186 0 11.028-8.972 20-20 20z"/><path style="fill:#fff;" d="m336 256c0 5.522 4.478 10 10 10s10-4.478 10-10c0-11.028 8.972-20 20-20 5.522 0 10-4.478 10-10s-4.478-10-10-10c-11.934 0-22.665 5.254-30 13.569-7.335-8.315-18.066-13.569-30-13.569-5.522 0-10 4.478-10 10s4.478 10 10 10c11.028 0 20 8.972 20 20z"/><path style="fill:#fff;" d="m426 316c0 5.522 4.478 10 10 10s10-4.478 10-10c0-11.028 8.972-20 20-20 5.522 0 10-4.478 10-10s-4.478-10-10-10c-11.934 0-22.665 5.254-30 13.569-7.335-8.315-18.066-13.569-30-13.569-5.522 0-10 4.478-10 10s4.478 10 10 10c11.028 0 20 8.972 20 20z"/><path style="fill:#fff;" d="m502 180c-11.934 0-22.665 5.254-30 13.569-7.335-8.315-18.066-13.569-30-13.569-5.522 0-10 4.478-10 10s4.478 10 10 10c11.028 0 20 8.972 20 20 0 5.522 4.478 10 10 10s10-4.478 10-10c0-11.028 8.972-20 20-20 5.522 0 10-4.478 10-10s-4.478-10-10-10z"/><circle style="fill:#fff;" cx="256" cy="502" r="10"/><path style="fill:#fff;" d="m505.976 396.824c-3.658-1.586-7.907-.846-10.815 1.881-8.098 7.592-33.795 27.295-55.161 27.295-25.624 0-54.876-27.029-55.16-27.295-3.848-3.607-9.832-3.607-13.68 0-8.097 7.592-33.794 27.295-55.16 27.295-6.064 0-12.778-1.593-20-4.69v-135.31c0-2.652-1.054-5.195-2.929-7.071l-27.071-27.072v-145.857c0-22.056-17.944-40-40-40h-216c-5.522 0-10 4.478-10 10v426c0 5.522 4.478 10 10 10h201c5.522 0 10-4.478 10-10s-4.478-10-10-10h-191v-65.465c13.27 9.075 32.682 19.465 52 19.465 21.834 0 44.871-13.175 61.995-26.872 11.78 9.425 36.97 26.872 62.005 26.872 24.749 0 48.541-16.98 60.004-26.57 16.416 13.733 38.413 26.57 59.996 26.57 25.031 0 50.218-17.442 62-26.868 11.782 9.426 36.969 26.868 62 26.868 19.318 0 38.73-10.39 52-19.465v65.465h-191c-5.522 0-10 4.478-10 10s4.478 10 10 10h201c5.522 0 10-4.478 10-10v-96c0-3.986-2.367-7.592-6.024-9.176zm-485.976-310.824h206c11.028 0 20 8.972 20 20s-8.972 20-20 20h-62c-22.056 0-40 17.944-40 40 0 11.028-8.972 20-20 20h-84zm0 315.456v-195.456h42v50c0 5.522 4.478 10 10 10s10-4.478 10-10v-50h22c7.283 0 14.112-1.966 20-5.382v111.239l-27.071 27.071c-1.875 1.877-2.929 4.42-2.929 7.072v74.627c-8.087 3.566-15.468 5.373-22 5.373-20.692 0-43.741-17.619-52-24.544zm228.938-2.536c-.236.235-20.851 20.515-42.938 25.816v-74.594l27.071-27.071c3.905-3.905 3.905-10.237 0-14.143-3.906-3.904-10.236-3.904-14.143 0l-30 30c-1.874 1.877-2.928 4.42-2.928 7.072v78.767c-22.671-5.284-44.913-25.83-45.16-26.062-3.841-3.602-9.821-3.601-13.67-.009-.078.073-5.253 4.869-13.17 10.427v-58.98l27.071-27.071c1.875-1.876 2.929-4.419 2.929-7.071v-150.001c0-11.028 8.972-20 20-20h22v80c0 5.522 4.478 10 10 10s10-4.478 10-10v-80h20c7.283 0 14.112-1.966 20-5.382v115.382c0 2.652 1.054 5.195 2.929 7.071l27.071 27.072v119.531c-7.802-5.682-12.858-10.675-12.929-10.745-3.896-3.898-10.223-3.897-14.133-.009z"/></g></svg>