<?xml version="1.0" encoding="iso-8859-1"?>
<!-- Generator: Adobe Illustrator 21.0.0, SVG Export Plug-In . SVG Version: 6.00 Build 0)  -->
<svg xmlns="http://www.w3.org/2000/svg" xmlns:xlink="http://www.w3.org/1999/xlink" version="1.1" id="Capa_1" x="0px" y="0px" viewBox="0 0 512 512" style="enable-background:new 0 0 512 512;" xml:space="preserve" width="512" height="512">
<g>
	<path d="M451.357,358.929c16.02-30.981,24.143-64.469,24.143-99.534c0-33.371-7.438-65.861-34.234-86.216   c7.043-4.427,11.734-12.267,11.734-21.182c0-11.639-7.995-21.446-18.783-24.217c3.713-9.902,2.979-20.154-2.382-28.932   c-5.763-9.435-15.652-15.055-26.332-15.353c-1.542-6.033-4.82-11.457-9.451-15.644c0.298-1.761,0.448-3.549,0.448-5.353   c0-17.645-14.355-31.999-32-31.999c-8.477,0-16.469,3.331-22.392,9.14c-2.569-0.95-5.317-1.595-8.208-1.901   c-3.195-0.338-6.33-0.216-9.333,0.323C319.462,26.945,308.286,19.5,295.5,19.5c-9.936,0-19.064,4.666-25.003,12.074   C270.268,14.124,256.003,0,238.5,0c-17.645,0-32,14.355-32,31.999c0,0.27,0.003,0.539,0.01,0.808   c-8.427,3.227-14.893,9.756-17.995,18.235c-6.906-1.336-14.099-0.334-20.578,2.981c-5.655-9.396-15.957-15.524-27.438-15.524   c-17.645,0-32,14.355-32,31.999c0,5.728,1.492,11.193,4.228,15.951c-2.515,0.63-4.96,1.568-7.274,2.807   c-3.652,1.954-5.029,6.498-3.076,10.151c1.955,3.653,6.5,5.029,10.151,3.076c3.604-1.929,7.627-2.48,11.571-1.605   c4.241,0.976,7.584-0.793,10.202-6.005c0.037-0.07,0.073-0.141,0.108-0.211c3.772-7.252,12.422-10.898,20.253-8.366   c5.004,1.664,10.263-1.574,11.085-6.675c0.867-5.169,4.05-9.627,8.835-12.146c4.753-2.501,10.237-2.654,15.076-0.4   c5.316,2.444,11.376-1.129,11.974-6.743c1.126-9.862,8.606-14.038,15.23-14.659c6.378-0.6,14.871,2.049,17.792,11.47   c2.089,6.767,11.007,8.149,15.047,2.426c3.476-4.884,9.17-7.497,15.229-6.996c6.03,0.501,11.202,4.033,13.874,9.528   c1.907,3.805,6.222,5.606,10.311,4.274c4.48-1.496,9.423-1.053,13.52,1.19c4.544,2.527,10.26,0.409,12.066-4.359   c1.699-4.374,4.514-7.172,7.688-8.798c0.324-0.126,0.636-0.274,0.935-0.441c2.954-1.279,6.145-1.614,8.997-1.311   c2.502,0.265,5.158,1.072,7.541,2.549c0.018,0.012,0.036,0.025,0.054,0.037c0.096,0.064,0.194,0.125,0.292,0.184   c3.404,2.23,6.191,5.871,7.066,11.31c0.515,3.085,2.673,5.631,5.677,6.657c1.612,0.54,3.16,1.346,4.6,2.397   c2.61,1.938,6.136,2.208,9.031,0.674c5.146-2.734,11.274-2.611,16.394,0.328c5.173,2.97,8.276,8.062,8.511,13.915   c0.081,2.455,1.225,4.75,3.138,6.295c1.933,1.562,4.451,2.204,6.894,1.76c6.945-1.246,13.823,1.856,17.518,7.907   c3.646,5.97,3.23,13.237-1.052,20.331h-12.486c-0.268-17.415-14.518-31.499-31.996-31.499s-31.728,14.084-31.996,31.499h-3.32   c-2.194-15.522-15.566-27.5-31.684-27.5s-29.491,11.978-31.684,27.5h-4.097c1.166-3.348,1.781-6.896,1.781-10.5   c0-17.645-14.355-31.999-32-31.999s-32,14.355-32,31.999c0,3.603,0.615,7.152,1.781,10.5h-9.097   c-2.194-15.522-15.566-27.5-31.684-27.5s-29.491,11.978-31.684,27.5h-31.921c-0.92-1.852-1.58-3.71-1.97-5.554   c-0.859-4.053-4.839-6.642-8.891-5.784c-4.052,0.858-6.642,4.839-5.784,8.891c0.173,0.818,0.377,1.634,0.609,2.446H85   c-13.785,0-25,11.215-25,25c0,8.686,4.453,16.351,11.195,20.833C44.129,193.086,36.5,225.618,36.5,259.396   c0,28.824,5.572,56.834,16.562,83.253c1.199,2.883,3.989,4.621,6.928,4.621c0.96,0,1.936-0.186,2.878-0.577   c3.824-1.591,5.635-5.981,4.044-9.806C56.686,312.304,51.5,286.232,51.5,259.396c0-36.593,9.073-67.074,41.947-82.399h258.428   c4.142,0,7.5-3.358,7.5-7.5s-3.358-7.5-7.5-7.5H92.011c-0.128-0.003-0.257-0.003-0.385,0H85c-5.514,0-10-4.486-10-10   s4.486-10,10-10c49.564,0,299.122,0,343,0c5.514,0,10,4.486,10,10s-4.486,10-10,10h-7.669c-0.09-0.002-0.179-0.001-0.269,0h-35.938   c-4.142,0-7.5,3.358-7.5,7.5s3.358,7.5,7.5,7.5h34.428c32.894,15.334,41.947,45.839,41.947,82.399   c0,32.644-7.559,63.814-22.467,92.644c-11.094,21.454-26.159,40.973-44.132,57.312c0.444-9.509-5.284-18.625-14.689-22.025   c-11.588-4.191-24.353,1.802-28.541,13.393v0c-0.704,1.948-6.835,19.656-5.471,41.174c0.006,0.099,0.013,0.197,0.02,0.296   c-28.714,13.873-58.819,20.303-89.22,20.303c-30.402,0-60.506-6.43-89.22-20.303c0.007-0.099,0.014-0.197,0.02-0.296   c1.364-21.518-4.768-39.226-5.471-41.174v0c-4.187-11.59-16.95-17.585-28.54-13.394c-9.412,3.403-15.142,12.529-14.682,22.064   c-14.511-13.145-26.991-28.241-37.234-45.066c-2.154-3.538-6.768-4.66-10.307-2.506c-3.538,2.154-4.66,6.768-2.506,10.306   c14.233,23.377,32.482,43.641,54.276,60.278c0.111,2.132,0.12,4.376-0.025,6.672c-0.93,14.68-7.614,24.284-21.035,30.224   c-11.238,4.974-16.338,18.167-11.368,29.41c4.945,11.187,18.045,16.398,29.403,11.375c23.629-10.458,39.243-28.771,45.097-52.432   c21.809,9.991,44.774,16.241,68.592,18.677v12.664c0,12.682,10.318,23,23,23s23-10.318,23-23v-12.664   c23.818-2.436,46.783-8.686,68.592-18.677c5.854,23.661,21.468,41.974,45.098,52.432c11.268,4.984,24.416-0.095,29.402-11.375   c4.97-11.243-0.13-24.437-11.368-29.41c-13.421-5.94-20.105-15.544-21.035-30.224c-0.145-2.296-0.136-4.54-0.025-6.672   C415.318,412.795,436.605,387.456,451.357,358.929z M152.751,70.667c-9.742-0.959-19.442,2.669-26.2,9.568   c-1.963-2.803-3.051-6.174-3.051-9.736c0-9.374,7.626-17,17-17c7.027,0,13.222,4.317,15.767,10.628   C154.849,66.151,153.668,68.342,152.751,70.667z M244.561,43.657c-5.267-7.481-13.531-12.193-23.011-12.964   C222.219,21.928,229.565,15,238.5,15c9.374,0,17,7.626,17,17c0,2.4-0.5,4.743-1.459,6.897   C250.633,39.935,247.433,41.54,244.561,43.657z M303.747,51.863c-4.596-1.382-9.46-1.718-14.199-0.981   c-2.335-3.297-5.238-6.076-8.556-8.231c3.025-4.929,8.486-8.151,14.508-8.151c6.713,0,12.591,3.858,15.345,9.642   C308.099,46.269,305.695,48.865,303.747,51.863z M363.138,61.578c-0.614-0.346-1.237-0.669-1.868-0.971   c-1.273-4.605-3.465-8.704-6.392-12.122c10.348-7.114,24.794-0.848,26.472,11.759C375.305,58.897,368.991,59.337,363.138,61.578z    M373.5,110.498c9.207,0,16.727,7.356,16.992,16.5h-33.985C356.773,117.854,364.293,110.498,373.5,110.498z M306.5,114.498   c7.817,0,14.418,5.303,16.395,12.5h-32.791C292.082,119.801,298.683,114.498,306.5,114.498z M223.5,116.498c0-9.374,7.626-17,17-17   s17,7.626,17,17c0,3.883-1.273,7.527-3.629,10.5h-26.742C224.773,124.025,223.5,120.381,223.5,116.498z M169.5,114.498   c7.817,0,14.418,5.303,16.395,12.5h-32.791C155.082,119.801,161.683,114.498,169.5,114.498z M113.241,496.366   c-3.679,1.628-7.981-0.025-9.614-3.722c-1.627-3.682,0.041-8.002,3.719-9.63c18.577-8.222,28.648-22.686,29.935-42.992   c0.654-10.322-1.24-22.418-3.771-29.243c-1.367-3.787,0.597-7.98,4.38-9.348c3.815-1.378,7.969,0.615,9.331,4.383   c0.595,1.648,5.782,16.637,4.61,35.131C150.22,466.383,136.515,486.065,113.241,496.366z M264,488.992c0,4.411-3.589,8-8,8   s-8-3.589-8-8v-11.639c5.148,0.18,10.491,0.192,16,0V488.992z M404.654,483.014c3.678,1.628,5.346,5.948,3.719,9.63   c-1.635,3.7-5.94,5.348-9.612,3.722c-23.275-10.301-36.98-29.983-38.591-55.42c-1.172-18.494,4.015-33.483,4.61-35.131   c1.354-3.748,5.5-5.769,9.331-4.383c3.782,1.367,5.747,5.56,4.392,9.312c-2.663,7.235-4.414,19.317-3.783,29.278   C376.005,460.328,386.077,474.793,404.654,483.014z"/>
</g>















</svg>
