<svg id="Capa_1" enable-background="new 0 0 511.998 511.998" height="512" viewBox="0 0 511.998 511.998" width="512" xmlns="http://www.w3.org/2000/svg"><g><g><g><path d="m161.99 305.752c-12.151 7.216-17.926 21.141-28.98 48.695-12.342 30.766-10.803 37.092-19.517 43.174-16.544 11.547-33.957-2.239-43.174 7.097-12.171 12.328-.265 55.062 27.797 78.069 39.573 32.444 97.369 14.257 101.135 13.011 48.441-16.022 44.476-49.654 92.855-63.875 40.869-12.013 65.451 5.593 82.801-14.194 10.923-12.458 2.812-21.3 17.743-57.369 10.574-25.544 17.229-27.357 17.743-41.992.72-20.49-12.133-22.379-15.969-49.68-3.189-22.693 5.056-25.912 0-46.723-4.952-20.385-15.016-26.163-11.344-34.894 4.71-11.2 22.565-4.77 39.733-17.152 19.315-13.93 28.815-45.221 20.7-66.832-5.298-14.109-13.817-11.976-30.163-37.26-11.547-17.86-9.712-22.593-17.546-27.403-16.217-9.958-29.949 6.724-50.469-1.577-18.156-7.345-16.765-24.183-31.937-26.615-12.334-1.977-15.443 8.882-39.626 18.334-26.341 10.296-36.033 2.642-44.949 13.011-11.142 12.958-.496 30.13-13.011 43.766-8.373 9.122-21.379 5.653-21.883 10.054-.539 4.708 12.955 12.513 27.206 13.011 18.636.651 26.527-12.7 33.12-8.871 10.211 5.929 5.103 45.29-10.941 50.863-8.84 3.071-13.835-6.604-26.91-4.731-15.544 2.227-15.651 16.927-29.867 20.108-16.521 3.697-23.357-14.592-49.385-13.899-5.905.157-14.933.398-19.813 6.506-6.224 7.79.297 17.617-5.619 23.953-7.356 7.878-23.916-.543-26.023 4.14-2.05 4.556 8.763 17.802 22.474 20.109 15.362 2.584 25.608-10.037 31.346-5.323 4.293 5.217-4.148 29.075-9.462 38.887-6.83 11.662-11.853 11.725-14.196 20.059-1.409 5.01-2.462 15.192 2.809 19.715 8.288 7.111 22.387-8.195 43.618-4.14 14.54 2.777 27.439 13.683 26.122 19.714-1.204 5.51-13.279 2.452-26.418 10.254z" fill="#a0e5a5"/><path d="m351.503 249.288c-4.39-30.17-29.96-55.89-64.44-55.89-13.99 0-26.52 4.24-36.76 11.29s-18.19 16.92-23.03 28.18c-7.63 17.74-7.53 38.94 3.49 58.04l56.3 97.5 56.3-97.5c7.779-13.48 10.12-28 8.14-41.62zm-64.441 34.31c-13.84 0-25.1-11.26-25.1-25.1s11.26-25.1 25.1-25.1 25.1 11.26 25.1 25.1c.001 13.84-11.26 25.1-25.1 25.1z" fill="#ff9256"/></g></g><g><g><path d="m205.091 503.692c-3.986 0-7.754-2.401-9.305-6.335-2.026-5.138.497-10.945 5.634-12.971 17.84-7.035 26.909-16.984 36.51-27.519 11.346-12.447 24.205-26.556 51.355-34.537 19.918-5.855 36.165-5.232 49.221-4.732 15.576.597 22.721.565 28.88-6.46 3.271-3.73 3.789-6.405 4.937-14.299 1.278-8.795 3.029-20.84 11.085-40.303 4.654-11.243 8.66-18.253 11.584-23.371 3.778-6.611 5.191-9.085 5.405-15.147.268-7.615-1.784-11.283-5.182-17.361-3.808-6.811-8.547-15.287-10.695-30.575-1.728-12.297-.447-19.983.582-26.159 1.031-6.186 1.775-10.654-.396-19.596-1.966-8.091-4.802-13.428-7.304-18.136-3.458-6.504-7.376-13.876-3.54-22.995 4.513-10.734 14.885-12.659 23.218-14.206 6.572-1.22 13.367-2.481 19.883-7.18 15.616-11.263 23.808-37.575 17.188-55.206-1.721-4.584-3.65-6.334-7.876-10.169-5.149-4.671-12.201-11.069-21.322-25.177-5.257-8.132-7.922-13.717-9.868-17.795-2.363-4.951-2.658-5.377-4.513-6.517-4.494-2.759-8.489-1.988-16.386-.13-8.695 2.048-19.517 4.593-32.601-.698-11.732-4.746-17.33-12.71-21.417-18.525-3.884-5.525-5.211-6.982-8.353-7.485-2.464-.393-3.544.085-9.63 4.285-5.367 3.704-12.717 8.777-24.772 13.489-13.796 5.392-23.525 6.33-30.629 7.015-7.459.719-8.526 1.048-10.378 3.202-2.982 3.469-3.282 7.675-3.554 14.81-.331 8.675-.743 19.47-9.673 29.199-2.256 2.458-4.701 4.292-7.155 5.68 1.726.335 3.56.563 5.46.63 7.452.265 12.469-2.5 17.326-5.171 5.315-2.923 12.593-6.924 20.466-2.355 7.757 4.505 11.386 15.594 9.959 30.426-1.409 14.637-8.183 33.512-22.641 38.532-8.079 2.807-14.38-.04-18.979-2.12-3.474-1.57-5.985-2.707-9.794-2.157-4.206.603-6.027 2.541-9.743 6.869-3.931 4.579-9.314 10.85-19.359 13.098-11.705 2.617-20.041-2.172-27.399-6.397-6.76-3.883-13.152-7.524-23.903-7.264-3.85.104-10.288.276-12.267 2.752-.791.989-.832 2.645-.736 6.188.131 4.87.329 12.229-5.386 18.349-3.811 4.082-8.53 5.808-13.135 6.418 1.25.515 2.57.914 3.937 1.145 5.24.879 9.998-1.186 14.601-3.188 5.583-2.426 14.02-6.091 21.434-.002.502.412.962.872 1.375 1.373 4.323 5.254 4.559 13.524.766 26.819-2.265 7.936-5.944 17.253-9.156 23.184-.053.099-.108.195-.164.292-3.79 6.471-7.216 10.043-9.719 12.651-2.402 2.503-2.929 3.102-3.48 5.062-.952 3.386-.919 7.107-.452 8.837 1.66-.293 4.52-1.259 6.723-2.002 7.966-2.69 18.875-6.377 32.407-3.789 12.601 2.406 25.379 10.11 31.073 18.735 3.582 5.427 3.577 10.029 2.942 12.935-2.016 9.223-10.805 10.865-16.622 11.952-4.404.823-9.395 1.756-14.459 4.764-9.102 5.405-14.182 17.34-24.805 43.82-4.268 10.638-6.869 18.384-8.769 24.04-3.853 11.475-5.976 17.796-14.307 23.61-11.9 8.307-23.881 6.943-32.632 5.951-3.482-.397-8.251-.938-9.148-.028-.828.838-2.141 3.896-1.817 10.044.809 15.385 10.975 38.621 28.838 53.266 4.465 3.661 9.45 6.772 14.818 9.249 5.015 2.314 7.205 8.254 4.892 13.268-2.314 5.015-8.254 7.205-13.27 4.892-6.91-3.188-13.343-7.205-19.121-11.942-23.386-19.173-35.122-48.525-36.13-67.682-.571-10.864 2.042-19.56 7.557-25.146 7.728-7.83 17.66-6.702 25.639-5.793 7.096.806 13.224 1.503 18.928-2.479 2.674-1.866 3.246-3.008 6.794-13.576 1.977-5.887 4.684-13.949 9.165-25.121 11.127-27.734 17.843-44.476 33.155-53.569 5.911-3.51 11.629-5.232 16.282-6.279-3.256-2.158-7.697-4.3-12.755-5.266-8.364-1.596-15.427.787-22.257 3.094-7.869 2.657-17.662 5.963-25.997-1.186-8.541-7.327-8.529-20.746-5.925-30.011 1.925-6.848 5.312-10.379 8.301-13.494 2.089-2.178 4.249-4.429 6.808-8.77 3.386-6.302 6.615-15.492 8.256-22.162-5.767 2.382-13.635 4.959-23.086 3.37-13.563-2.281-24.372-11.99-28.674-20.044-3.397-6.36-2.56-11.141-1.26-14.03 3.897-8.662 13.396-7.588 19.071-6.945 2.185.247 7.204.817 8.682.111.182-.816.129-2.823.092-4.188-.133-4.939-.333-12.403 5.104-19.208 7.779-9.736 20.513-10.078 27.353-10.261 16.38-.462 26.799 5.546 34.404 9.913 6.634 3.811 9.295 5.068 13.069 4.223 3.413-.764 5.183-2.684 8.552-6.607 4.328-5.042 10.256-11.946 22.081-13.641 9.576-1.367 16.372 1.7 20.868 3.732 2.56 1.156 3.706 1.616 4.18 1.452 1.858-.646 4.848-4.287 7.02-10.758 2.584-7.698 2.826-15.511 2.137-19.835-.257.141-.508.278-.744.408-5.856 3.221-14.706 8.086-27.66 7.634-12.947-.453-26.839-6.001-33.033-13.192-3.657-4.246-4.063-8.298-3.759-10.95 1.066-9.312 10.412-10.948 14.403-11.647 3.718-.65 7.562-1.324 10.048-4.032 3.774-4.112 4.126-8.694 4.421-16.438.309-8.087.693-18.151 8.374-27.086 7.306-8.498 15.602-9.298 23.624-10.07 6.266-.604 14.063-1.356 25.267-5.734 9.89-3.866 15.88-8 20.693-11.322 6.616-4.565 13.455-9.286 24.156-7.573 11.824 1.895 17.217 9.567 21.55 15.733 3.516 5.001 6.292 8.951 12.555 11.484 7.19 2.91 13.368 1.456 20.519-.229 8.784-2.067 19.716-4.641 31.433 2.555 7.024 4.312 9.376 9.241 12.098 14.947 1.807 3.787 4.056 8.5 8.613 15.548 7.701 11.912 13.392 17.075 17.965 21.224 5.008 4.544 9.739 8.836 13.162 17.95 9.769 26.018-1.318 61.947-24.212 78.458-10.154 7.323-20.43 9.231-27.933 10.624-2.964.55-7.431 1.379-8.398 2.216-.002.008-.011.027-.024.057.19 1.051 1.666 3.827 2.755 5.877 2.751 5.177 6.519 12.266 9.079 22.802 3.138 12.915 1.837 20.719.69 27.604-.928 5.571-1.805 10.833-.504 20.089 1.627 11.58 5.043 17.69 8.347 23.598 4.02 7.19 8.177 14.625 7.712 27.825-.386 10.995-3.758 16.896-8.027 24.367-2.807 4.912-6.301 11.026-10.47 21.099-7.103 17.158-8.583 27.345-9.773 35.529-1.267 8.719-2.362 16.248-9.69 24.607-12.701 14.485-28.235 13.894-44.685 13.26-12.204-.47-26.035-.998-42.814 3.935-21.78 6.403-31.25 16.792-42.214 28.822-10.216 11.209-21.796 23.914-43.955 32.651-1.209.468-2.45.694-3.67.694z"/></g><g><circle cx="160.087" cy="501.998" r="10"/></g><g><path d="m287.064 293.601c-19.356 0-35.103-15.747-35.103-35.103 0-19.355 15.747-35.103 35.103-35.103s35.103 15.747 35.103 35.103-15.747 35.103-35.103 35.103zm0-50.206c-8.328 0-15.103 6.775-15.103 15.103s6.775 15.103 15.103 15.103 15.103-6.775 15.103-15.103-6.776-15.103-15.103-15.103z"/></g><g><path d="m287.064 398.412c-3.573 0-6.874-1.906-8.66-5l-56.297-97.509c-11.953-20.702-13.42-45.117-4.023-66.983 11.885-27.655 38.961-45.525 68.98-45.525 18.715 0 36.55 6.827 50.222 19.224 13.026 11.812 21.588 27.875 24.11 45.232 2.417 16.629-.825 33.245-9.374 48.053l-56.297 97.509c-1.787 3.093-5.088 4.999-8.661 4.999zm0-195.017c-22.355 0-41.746 12.807-50.605 33.422-6.88 16.012-5.799 33.902 2.968 49.087l47.637 82.509 47.637-82.509c6.279-10.876 8.666-23.04 6.903-35.178-3.418-23.521-23.249-47.331-54.54-47.331z"/></g></g></g></svg>