<svg height="512pt" viewBox="0 0 512 512" width="512pt" xmlns="http://www.w3.org/2000/svg" xmlns:xlink="http://www.w3.org/1999/xlink"><linearGradient id="a" gradientUnits="userSpaceOnUse" x1="0" x2="512" y1="256" y2="256"><stop offset="0" stop-color="#00f2fe"/><stop offset=".0208" stop-color="#03effe"/><stop offset=".2931" stop-color="#24d2fe"/><stop offset=".5538" stop-color="#3cbdfe"/><stop offset=".7956" stop-color="#4ab0fe"/><stop offset="1" stop-color="#4facfe"/></linearGradient><path d="m512 256c0 50.53125-15 99.675781-43.375 142.117188-6.136719 9.179687-18.558594 11.648437-27.742188 5.507812-9.183593-6.136719-11.648437-18.558594-5.511718-27.742188 23.964844-35.839843 36.628906-77.292968 36.628906-119.882812 0-119.101562-96.898438-216-216-216s-216 96.898438-216 216 96.898438 216 216 216c39.507812 0 78.144531-10.757812 111.738281-31.105469 9.445313-5.722656 21.742188-2.703125 27.464844 6.742188 5.726563 9.449219 2.707031 21.746093-6.742187 27.46875-39.84375 24.136719-85.648438 36.894531-132.460938 36.894531-68.378906 0-132.667969-26.628906-181.019531-74.980469-48.351563-48.351562-74.980469-112.640625-74.980469-181.019531s26.628906-132.667969 74.980469-181.019531c48.351562-48.351563 112.640625-74.980469 181.019531-74.980469s132.667969 26.628906 181.019531 74.980469c48.351563 48.351562 74.980469 112.640625 74.980469 181.019531zm-112 0c0-11.046875-8.953125-20-20-20h-207.183594l72.28125-71.8125c7.835938-7.785156 7.875-20.449219.089844-28.285156-7.785156-7.835938-20.449219-7.875-28.285156-.089844l-78.199219 77.695312c-11.417969 11.34375-17.703125 26.433594-17.703125 42.492188s6.285156 31.148438 17.703125 42.488281l78.199219 77.699219c3.902344 3.875 9 5.8125 14.097656 5.8125 5.140625 0 10.277344-1.96875 14.1875-5.902344 7.785156-7.835937 7.746094-20.5-.089844-28.285156l-72.28125-71.8125h207.183594c11.046875 0 20-8.953125 20-20zm0 0" fill="url(#a)"/></svg>