<svg id="Capa_1" enable-background="new 0 0 512.019 512.019" height="512" viewBox="0 0 512.019 512.019" width="512" xmlns="http://www.w3.org/2000/svg"><g><path d="m486.436 323.243h-177.916c-9.981 0-18.073-8.092-18.073-18.073v-.742c0-4.589 3.72-8.309 8.309-8.309h197.444c4.589 0 8.309 3.72 8.309 8.309v.742c0 9.982-8.091 18.073-18.073 18.073z" fill="#8b818e"/><path d="m418.933 452.76c-13.276-7.666-29.633-7.666-42.91 0h-.001c-1.111.642-1.653 1.95-1.321 3.189l10.405 38.831c1.398 5.217 5.824 9.191 11.203 9.678 6.235.565 11.869-3.442 13.46-9.378l10.485-39.13c.332-1.24-.209-2.549-1.321-3.19z" fill="#8b818e"/><path d="m313.355 449.136-10.597 39.55c-1.356 5.059.435 10.543 4.716 13.561 4.963 3.498 11.637 2.864 15.852-1.35l28.731-28.731c-15.208-3.866-28.501-12.054-38.702-23.03z" fill="#665e66"/><path d="m481.602 449.136 10.597 39.55c1.356 5.059-.435 10.543-4.716 13.561-4.963 3.498-11.637 2.864-15.852-1.35l-28.731-28.732c15.208-3.865 28.501-12.053 38.702-23.029z" fill="#665e66"/><path d="m500.348 373.834-13.556-50.591h-178.628l-13.556 50.591c-13.627 50.858 24.695 100.8 77.347 100.8h7.753l-5.007-18.685c-.332-1.24.21-2.548 1.321-3.189h.001c13.276-7.666 29.634-7.666 42.91 0 1.111.642 1.653 1.95 1.321 3.189l-5.007 18.685h7.754c52.652 0 90.974-49.943 77.347-100.8z" fill="#8b818e"/><path d="m500.348 373.834-13.556-50.591h-34.705c15.545 66.842-35.198 131.391-104.463 131.391h-15.669c-4.926 0-9.726-.437-14.37-1.271 14.119 13.099 33.072 21.271 54.37 21.271h7.753l-5.007-18.685c-.332-1.24.21-2.548 1.321-3.189h.001c13.276-7.666 29.634-7.666 42.91 0 1.111.642 1.653 1.95 1.321 3.189l-5.007 18.685h7.753c52.653 0 90.975-49.943 77.348-100.8z" fill="#756e78"/><path d="m353.007 141.694c-59.809-59.809-139.329-92.747-223.911-92.747-42.418 0-83.563 8.284-121.587 24.087v43.393c37.388-18.282 78.745-27.939 121.587-27.939 74.02 0 143.611 28.825 195.951 81.166 35.54 35.54 60.238 79.033 72.431 126.466l40.672-.001c-12.932-58.051-42.068-111.35-85.143-154.425z" fill="#f4dd45"/><path d="m382.315 112.387c-67.638-67.637-157.566-104.887-253.219-104.887-41.812 0-82.53 7.118-120.77 20.779-.489.175-.816.64-.816 1.16v43.595c38.024-15.803 79.169-24.087 121.587-24.087 84.582 0 164.102 32.938 223.911 92.747 43.075 43.075 72.211 96.374 85.143 154.425h42.355c-13.529-69.173-47.237-132.778-98.191-183.732z" fill="#dd5790"/><path d="m325.047 169.654c-52.341-52.341-121.931-81.166-195.951-81.166-42.841 0-84.199 9.656-121.587 27.939v44.962c36.386-21.75 78.094-33.359 121.587-33.359 63.458 0 123.119 24.712 167.991 69.584 27.975 27.975 48.114 61.697 59.314 98.505h41.077c-12.193-47.432-36.891-90.925-72.431-126.465z" fill="#95d6a4"/><path d="m297.087 197.615c-44.872-44.872-104.533-69.584-167.991-69.584-43.492 0-85.201 11.608-121.587 33.359v45.414c0 1.014 1.156 1.581 1.964.968 33.233-25.227 74.678-40.198 119.62-40.199.002 0 .003-.001.003-.003 0 .002.001.003.003.003 84.92.001 157.354 53.453 185.497 128.547h41.806c-11.201-36.808-31.34-70.531-59.315-98.505z" fill="#b1e4f9"/><path d="m397.479 296.12 40.672-.001c-1.5-6.734-3.219-13.403-5.151-20h-41.483c2.237 6.58 4.226 13.251 5.962 20.001z" fill="#f1d333"/><path d="m438.151 296.119h42.355c-1.315-6.721-2.82-13.39-4.513-20h-42.993c1.932 6.597 3.65 13.266 5.151 20z" fill="#da387d"/><path d="m356.401 296.119h41.077c-1.735-6.75-3.724-13.421-5.961-20h-42.205c2.662 6.551 5.027 13.223 7.089 20z" fill="#69af81"/><path d="m314.595 296.119h41.806c-2.062-6.777-4.428-13.449-7.089-20h-43.508c3.284 6.47 6.222 13.145 8.791 20z" fill="#90d8f9"/><path d="m230.231 248.632c-4.142 0-7.5 3.357-7.5 7.5v10.402c0 4.143 3.358 7.5 7.5 7.5s7.5-3.357 7.5-7.5v-10.402c0-4.143-3.358-7.5-7.5-7.5z"/><path d="m230.231 294.167c-4.142 0-7.5 3.357-7.5 7.5v10.402c0 4.143 3.358 7.5 7.5 7.5s7.5-3.357 7.5-7.5v-10.402c0-4.143-3.358-7.5-7.5-7.5z"/><path d="m258.2 276.601h-10.402c-4.142 0-7.5 3.357-7.5 7.5s3.358 7.5 7.5 7.5h10.402c4.142 0 7.5-3.357 7.5-7.5s-3.358-7.5-7.5-7.5z"/><path d="m212.665 276.601h-10.402c-4.142 0-7.5 3.357-7.5 7.5s3.358 7.5 7.5 7.5h10.402c4.142 0 7.5-3.357 7.5-7.5s-3.358-7.5-7.5-7.5z"/><path d="m438.15 104.716c-4.142 0-7.5 3.357-7.5 7.5s3.358 7.5 7.5 7.5h8.956c4.142 0 7.5-3.357 7.5-7.5s-3.358-7.5-7.5-7.5z"/><path d="m476.649 119.716h8.956c4.142 0 7.5-3.357 7.5-7.5s-3.358-7.5-7.5-7.5h-8.956c-4.142 0-7.5 3.357-7.5 7.5s3.358 7.5 7.5 7.5z"/><path d="m461.878 104.944c4.142 0 7.5-3.357 7.5-7.5v-8.956c0-4.143-3.358-7.5-7.5-7.5s-7.5 3.357-7.5 7.5v8.956c0 4.143 3.358 7.5 7.5 7.5z"/><path d="m461.878 119.487c-4.142 0-7.5 3.357-7.5 7.5v8.956c0 4.143 3.358 7.5 7.5 7.5s7.5-3.357 7.5-7.5v-8.956c0-4.142-3.358-7.5-7.5-7.5z"/><path d="m386.057 55.004h10.368c4.142 0 7.5-3.357 7.5-7.5s-3.358-7.5-7.5-7.5h-10.368c-4.142 0-7.5 3.357-7.5 7.5s3.358 7.5 7.5 7.5z"/><path d="m430.625 55.004h10.368c4.142 0 7.5-3.357 7.5-7.5s-3.358-7.5-7.5-7.5h-10.368c-4.142 0-7.5 3.357-7.5 7.5s3.358 7.5 7.5 7.5z"/><path d="m413.525 37.903c4.142 0 7.5-3.357 7.5-7.5v-10.367c0-4.143-3.358-7.5-7.5-7.5s-7.5 3.357-7.5 7.5v10.367c0 4.143 3.358 7.5 7.5 7.5z"/><path d="m413.525 82.473c4.142 0 7.5-3.357 7.5-7.5v-10.369c0-4.143-3.358-7.5-7.5-7.5s-7.5 3.357-7.5 7.5v10.368c0 4.143 3.358 7.501 7.5 7.501z"/><path d="m119.213 218.403h-4.427c-4.142 0-7.5 3.357-7.5 7.5s3.358 7.5 7.5 7.5h4.427c4.142 0 7.5-3.357 7.5-7.5s-3.358-7.5-7.5-7.5z"/><path d="m159.355 218.403h-4.427c-4.142 0-7.5 3.357-7.5 7.5s3.358 7.5 7.5 7.5h4.427c4.142 0 7.5-3.357 7.5-7.5s-3.358-7.5-7.5-7.5z"/><path d="m137.07 196.119c-4.142 0-7.5 3.357-7.5 7.5v4.426c0 4.143 3.358 7.5 7.5 7.5s7.5-3.357 7.5-7.5v-4.426c0-4.142-3.358-7.5-7.5-7.5z"/><path d="m137.07 236.261c-4.142 0-7.5 3.357-7.5 7.5v4.427c0 4.143 3.358 7.5 7.5 7.5s7.5-3.357 7.5-7.5v-4.427c0-4.143-3.358-7.5-7.5-7.5z"/><path d="m512.009 305.17v-.741c0-8.718-7.092-15.81-15.81-15.81h-9.574c-14.644-68.665-48.792-131.319-99.008-181.536-69.052-69.054-160.864-107.083-258.521-107.083-42.404 0-83.885 7.139-123.294 21.217-3.465 1.237-5.793 4.542-5.793 8.223v177.363c0 3.335 1.854 6.328 4.84 7.81 2.988 1.483 6.498 1.152 9.159-.868 32.848-24.934 72.525-38.673 115.09-38.673 75.363.002 144.083 45.202 174.336 113.548h-4.678c-8.717 0-15.81 7.092-15.81 15.81v.741c0 10.698 6.603 19.883 15.947 23.693l-11.53 43.031c-1.456 5.435-2.398 10.999-2.8 16.539-.3 4.132 2.806 7.724 6.938 8.023 4.117.304 7.723-2.799 8.023-6.938.333-4.598 1.117-9.222 2.329-13.743l12.067-45.032h98.187c4.142 0 7.5-3.357 7.5-7.5s-3.358-7.5-7.5-7.5h-103.587c-5.83 0-10.573-4.743-10.573-10.573v-.741c0-.446.363-.81.81-.81h197.443c.446 0 .81.363.81.81v.741c0 5.83-4.743 10.573-10.573 10.573h-39.33c-4.142 0-7.5 3.357-7.5 7.5s3.358 7.5 7.5 7.5h33.93l12.067 45.032c12.178 45.45-21.395 90.063-68.074 91.331l2.469-9.215c1.208-4.511-.772-9.291-4.816-11.626-15.547-8.978-34.863-8.978-50.411 0-4.043 2.334-6.024 7.115-4.815 11.626l2.469 9.215c-29.588-.805-54.947-19.07-65.59-46.103-1.518-3.855-5.872-5.751-9.726-4.231-3.854 1.518-5.749 5.872-4.231 9.726 3.609 9.167 8.595 17.453 14.668 24.663l-9.535 35.585c-2.19 8.174.88 16.867 7.64 21.632 7.902 5.567 18.618 4.681 25.476-2.178l25.804-25.803c5.683 1.144 11.545 1.738 17.523 1.738h1.998l3.909 14.588c2.233 8.334 9.375 14.445 17.771 15.206 9.907.886 18.842-5.435 21.381-14.907l3.989-14.887h1.998c5.964 0 11.828-.59 17.524-1.736l25.802 25.801c6.853 6.854 17.569 7.751 25.476 2.179 6.76-4.765 9.831-13.458 7.641-21.633l-9.554-35.655c18.459-21.898 25.26-50.989 17.703-79.197l-11.53-43.03c9.344-3.813 15.946-12.997 15.946-23.695zm-382.696-145.099c-.144-.004-.289-.004-.433 0-41.032.043-80.143 11.942-113.871 34.538v-28.919c34.485-19.744 73.836-30.16 114.087-30.16 61.455 0 119.232 23.932 162.688 67.388 24.287 24.286 42.908 53.745 54.251 85.701h-26.312c-30.647-75.907-104.804-128.459-190.41-128.548zm232.577 128.548c-11.88-35.984-32.374-69.183-59.5-96.309-46.289-46.288-107.832-71.78-173.294-71.78-39.994 0-79.169 9.664-114.087 28.048v-27.426c35.691-16.7 74.049-25.164 114.087-25.164 72.017 0 139.724 28.045 190.648 78.97 31.883 31.883 55.221 71.014 67.877 113.661zm82.216 0c-13.932-57.423-43.512-109.945-85.795-152.229-61.226-61.225-142.629-94.943-229.214-94.943-23.488 0-46.906 2.506-69.603 7.449-4.047.881-6.614 4.877-5.732 8.924.881 4.047 4.88 6.615 8.924 5.732 21.651-4.715 43.995-7.105 66.412-7.105 82.579 0 160.215 32.158 218.608 90.551 39.46 39.459 67.318 88.258 80.943 141.621h-25.417c-13.052-46.696-38.169-89.557-72.88-124.269-53.757-53.757-125.231-83.362-201.254-83.362-39.89 0-78.211 7.966-114.087 23.698v-26.602c4.391-1.741 8.837-3.386 13.272-4.91 3.917-1.347 6.001-5.613 4.655-9.53-1.346-3.918-5.614-6-9.531-4.655-2.8.962-5.604 1.971-8.396 3.019v-28.122c36.538-12.534 74.895-18.886 114.085-18.886 93.65 0 181.695 36.47 247.915 102.69 47.395 47.394 79.863 106.331 94.263 170.929zm-126.084 206.974c-1.669 1.669-4.289 1.89-6.228.523-1.642-1.157-2.362-3.363-1.792-5.489l7.362-27.475c6.317 5.036 13.317 9.174 20.811 12.287zm78.964 1.395c-2.16-.195-4.022-1.863-4.635-4.149-8.814-32.893 6.794 25.352-9.431-35.195 9.232-4.158 19.883-4.157 29.116-.001-2.361 8.811-7.1 26.496-9.511 35.495-.66 2.461-2.993 4.083-5.539 3.85zm86.176-.872c-1.938 1.367-4.557 1.147-6.228-.524l-20.158-20.157c7.455-3.105 14.451-7.246 20.803-12.331l7.375 27.523c.57 2.126-.15 4.331-1.792 5.489z"/></g></svg>