<svg id="Capa_1" enable-background="new 0 0 512.019 512.019" height="512" viewBox="0 0 512.019 512.019" width="512" xmlns="http://www.w3.org/2000/svg"><g><path d="m230.231 248.632c-4.142 0-7.5 3.357-7.5 7.5v10.402c0 4.143 3.358 7.5 7.5 7.5s7.5-3.357 7.5-7.5v-10.402c0-4.143-3.358-7.5-7.5-7.5z"/><path d="m230.231 294.167c-4.142 0-7.5 3.357-7.5 7.5v10.402c0 4.143 3.358 7.5 7.5 7.5s7.5-3.357 7.5-7.5v-10.402c0-4.143-3.358-7.5-7.5-7.5z"/><path d="m258.2 276.601h-10.402c-4.142 0-7.5 3.357-7.5 7.5s3.358 7.5 7.5 7.5h10.402c4.142 0 7.5-3.357 7.5-7.5s-3.358-7.5-7.5-7.5z"/><path d="m212.665 276.601h-10.402c-4.142 0-7.5 3.357-7.5 7.5s3.358 7.5 7.5 7.5h10.402c4.142 0 7.5-3.357 7.5-7.5s-3.358-7.5-7.5-7.5z"/><path d="m438.15 104.716c-4.142 0-7.5 3.357-7.5 7.5s3.358 7.5 7.5 7.5h8.956c4.142 0 7.5-3.357 7.5-7.5s-3.358-7.5-7.5-7.5z"/><path d="m476.649 119.716h8.956c4.142 0 7.5-3.357 7.5-7.5s-3.358-7.5-7.5-7.5h-8.956c-4.142 0-7.5 3.357-7.5 7.5s3.358 7.5 7.5 7.5z"/><path d="m461.878 104.944c4.142 0 7.5-3.357 7.5-7.5v-8.956c0-4.143-3.358-7.5-7.5-7.5s-7.5 3.357-7.5 7.5v8.956c0 4.143 3.358 7.5 7.5 7.5z"/><path d="m461.878 119.487c-4.142 0-7.5 3.357-7.5 7.5v8.956c0 4.143 3.358 7.5 7.5 7.5s7.5-3.357 7.5-7.5v-8.956c0-4.142-3.358-7.5-7.5-7.5z"/><path d="m386.057 55.004h10.368c4.142 0 7.5-3.357 7.5-7.5s-3.358-7.5-7.5-7.5h-10.368c-4.142 0-7.5 3.357-7.5 7.5s3.358 7.5 7.5 7.5z"/><path d="m430.625 55.004h10.368c4.142 0 7.5-3.357 7.5-7.5s-3.358-7.5-7.5-7.5h-10.368c-4.142 0-7.5 3.357-7.5 7.5s3.358 7.5 7.5 7.5z"/><path d="m413.525 37.903c4.142 0 7.5-3.357 7.5-7.5v-10.367c0-4.143-3.358-7.5-7.5-7.5s-7.5 3.357-7.5 7.5v10.367c0 4.143 3.358 7.5 7.5 7.5z"/><path d="m413.525 82.473c4.142 0 7.5-3.357 7.5-7.5v-10.369c0-4.143-3.358-7.5-7.5-7.5s-7.5 3.357-7.5 7.5v10.368c0 4.143 3.358 7.501 7.5 7.501z"/><path d="m119.213 218.403h-4.427c-4.142 0-7.5 3.357-7.5 7.5s3.358 7.5 7.5 7.5h4.427c4.142 0 7.5-3.357 7.5-7.5s-3.358-7.5-7.5-7.5z"/><path d="m159.355 218.403h-4.427c-4.142 0-7.5 3.357-7.5 7.5s3.358 7.5 7.5 7.5h4.427c4.142 0 7.5-3.357 7.5-7.5s-3.358-7.5-7.5-7.5z"/><path d="m137.07 196.119c-4.142 0-7.5 3.357-7.5 7.5v4.426c0 4.143 3.358 7.5 7.5 7.5s7.5-3.357 7.5-7.5v-4.426c0-4.142-3.358-7.5-7.5-7.5z"/><path d="m137.07 236.261c-4.142 0-7.5 3.357-7.5 7.5v4.427c0 4.143 3.358 7.5 7.5 7.5s7.5-3.357 7.5-7.5v-4.427c0-4.143-3.358-7.5-7.5-7.5z"/><path d="m512.009 305.17v-.741c0-8.718-7.092-15.81-15.81-15.81h-9.574c-14.644-68.665-48.792-131.319-99.008-181.536-69.052-69.054-160.864-107.083-258.521-107.083-42.404 0-83.885 7.139-123.294 21.217-3.465 1.237-5.793 4.542-5.793 8.223v177.363c0 3.335 1.854 6.328 4.84 7.81 2.988 1.483 6.498 1.152 9.159-.868 32.848-24.934 72.525-38.673 115.09-38.673 75.363.002 144.083 45.202 174.336 113.548h-4.678c-8.717 0-15.81 7.092-15.81 15.81v.741c0 10.698 6.603 19.883 15.947 23.693l-11.53 43.031c-1.456 5.435-2.398 10.999-2.8 16.539-.3 4.132 2.806 7.724 6.938 8.023 4.117.304 7.723-2.799 8.023-6.938.333-4.598 1.117-9.222 2.329-13.743l12.067-45.032h98.187c4.142 0 7.5-3.357 7.5-7.5s-3.358-7.5-7.5-7.5h-103.587c-5.83 0-10.573-4.743-10.573-10.573v-.741c0-.446.363-.81.81-.81h197.443c.446 0 .81.363.81.81v.741c0 5.83-4.743 10.573-10.573 10.573h-39.33c-4.142 0-7.5 3.357-7.5 7.5s3.358 7.5 7.5 7.5h33.93l12.067 45.032c12.178 45.45-21.395 90.063-68.074 91.331l2.469-9.215c1.208-4.511-.772-9.291-4.816-11.626-15.547-8.978-34.863-8.978-50.411 0-4.043 2.334-6.024 7.115-4.815 11.626l2.469 9.215c-29.588-.805-54.947-19.07-65.59-46.103-1.518-3.855-5.872-5.751-9.726-4.231-3.854 1.518-5.749 5.872-4.231 9.726 3.609 9.167 8.595 17.453 14.668 24.663l-9.535 35.585c-2.19 8.174.88 16.867 7.64 21.632 7.902 5.567 18.618 4.681 25.476-2.178l25.804-25.803c5.683 1.144 11.545 1.738 17.523 1.738h1.998l3.909 14.588c2.233 8.334 9.375 14.445 17.771 15.206 9.907.886 18.842-5.435 21.381-14.907l3.989-14.887h1.998c5.964 0 11.828-.59 17.524-1.736l25.802 25.801c6.853 6.854 17.569 7.751 25.476 2.179 6.76-4.765 9.831-13.458 7.641-21.633l-9.554-35.655c18.459-21.898 25.26-50.989 17.703-79.197l-11.53-43.03c9.344-3.813 15.946-12.997 15.946-23.695zm-382.696-145.099c-.144-.004-.289-.004-.433 0-41.032.043-80.143 11.942-113.871 34.538v-28.919c34.485-19.744 73.836-30.16 114.087-30.16 61.455 0 119.232 23.932 162.688 67.388 24.287 24.286 42.908 53.745 54.251 85.701h-26.312c-30.647-75.907-104.804-128.459-190.41-128.548zm232.577 128.548c-11.88-35.984-32.374-69.183-59.5-96.309-46.289-46.288-107.832-71.78-173.294-71.78-39.994 0-79.169 9.664-114.087 28.048v-27.426c35.691-16.7 74.049-25.164 114.087-25.164 72.017 0 139.724 28.045 190.648 78.97 31.883 31.883 55.221 71.014 67.877 113.661zm82.216 0c-13.932-57.423-43.512-109.945-85.795-152.229-61.226-61.225-142.629-94.943-229.214-94.943-23.488 0-46.906 2.506-69.603 7.449-4.047.881-6.614 4.877-5.732 8.924.881 4.047 4.88 6.615 8.924 5.732 21.651-4.715 43.995-7.105 66.412-7.105 82.579 0 160.215 32.158 218.608 90.551 39.46 39.459 67.318 88.258 80.943 141.621h-25.417c-13.052-46.696-38.169-89.557-72.88-124.269-53.757-53.757-125.231-83.362-201.254-83.362-39.89 0-78.211 7.966-114.087 23.698v-26.602c4.391-1.741 8.837-3.386 13.272-4.91 3.917-1.347 6.001-5.613 4.655-9.53-1.346-3.918-5.614-6-9.531-4.655-2.8.962-5.604 1.971-8.396 3.019v-28.122c36.538-12.534 74.895-18.886 114.085-18.886 93.65 0 181.695 36.47 247.915 102.69 47.395 47.394 79.863 106.331 94.263 170.929zm-126.084 206.974c-1.669 1.669-4.289 1.89-6.228.523-1.642-1.157-2.362-3.363-1.792-5.489l7.362-27.475c6.317 5.036 13.317 9.174 20.811 12.287zm78.964 1.395c-2.16-.195-4.022-1.863-4.635-4.149-8.814-32.893 6.794 25.352-9.431-35.195 9.232-4.158 19.883-4.157 29.116-.001-2.361 8.811-7.1 26.496-9.511 35.495-.66 2.461-2.993 4.083-5.539 3.85zm86.176-.872c-1.938 1.367-4.557 1.147-6.228-.524l-20.158-20.157c7.455-3.105 14.451-7.246 20.803-12.331l7.375 27.523c.57 2.126-.15 4.331-1.792 5.489z"/></g></svg>