<svg id="Capa_1" enable-background="new 0 0 511.586 511.586" height="512" viewBox="0 0 511.586 511.586" width="512" xmlns="http://www.w3.org/2000/svg"><g><g><g><g id="XMLID_1_"><g><g><path d="m504.087 473.222c0 7.88-3 15.78-9.04 21.82-12.52 12.52-32.98 11.97-44.81-1.21l-117.72-131.19-74.25-80.65 30.13-19.6 74.24 70.13 131.2 117.72c6.81 6.11 10.25 14.54 10.25 22.98z" fill="#efedee"/></g></g></g><path d="m362.637 332.522-74.24-70.13-30.13 19.6 74.25 80.65 13.391 14.923c5.751-4.7 11.302-9.711 16.625-15.033 5.321-5.321 10.33-10.87 15.029-16.619z" fill="#e4e1e5"/><circle cx="207.189" cy="207.189" fill="#f8f7f8" r="199.689"/><path d="m87.722 211.664c0-98.149 69.257-180.126 161.568-199.718-13.576-2.914-27.654-4.446-42.101-4.446-110.285 0-199.689 89.404-199.689 199.688s89.404 199.689 199.689 199.689c7.171 0 14.237-.376 21.213-1.113-81.679-26.694-140.68-103.504-140.68-194.1z" fill="#efedee"/><ellipse cx="207.189" cy="207.188" fill="#badafb" rx="163.689" ry="163.689" transform="matrix(.707 -.707 .707 .707 -85.82 207.189)"/><path d="m170.203 47.715c-72.504 16.809-126.703 81.931-126.703 159.473 0 71.492 46.075 132.417 110.087 154.665-40.496-37.308-65.864-90.784-65.864-150.189-.001-67.159 32.43-126.74 82.48-163.949z" fill="#97c9f9"/><g id="XMLID_4_"><g><path d="m425.167 388.622-36.54 36.54-22.35-24.9 33.98-33.99z" fill="#e4e1e5"/></g></g></g></g><path d="m207.189 363.377c-55.962 0-108.001-30.318-135.809-79.123-2.051-3.6-6.632-4.854-10.229-2.804-3.599 2.051-4.854 6.631-2.804 10.229 30.471 53.477 87.503 86.697 148.842 86.697 94.394 0 171.188-76.795 171.188-171.188s-76.794-171.188-171.188-171.188-171.189 76.795-171.189 171.188c0 18.358 2.915 36.454 8.664 53.784 1.304 3.931 5.55 6.062 9.48 4.757 3.932-1.304 6.062-5.549 4.757-9.48-5.243-15.804-7.901-32.31-7.901-49.061 0-86.122 70.066-156.188 156.189-156.188s156.188 70.066 156.188 156.188-70.065 156.189-156.188 156.189z"/><path d="m511.572 472.179c-.287-10.639-4.809-20.413-12.73-27.521l-19.604-17.59c-3.084-2.767-7.824-2.509-10.591.573-2.767 3.083-2.51 7.825.573 10.591l19.604 17.591c4.825 4.329 7.579 10.282 7.754 16.762.176 6.48-2.253 12.573-6.837 17.157-4.584 4.583-10.672 7.007-17.156 6.836-6.479-.175-12.433-2.929-16.762-7.753l-56.869-63.378 26.492-26.492 19.951 17.902c1.433 1.286 3.223 1.918 5.006 1.918 2.057 0 4.104-.84 5.585-2.491 2.767-3.083 2.51-7.825-.573-10.591l-82.621-74.136c26.096-34.661 41.584-77.738 41.584-124.367 0-42.951-13.033-84.158-37.691-119.168-2.385-3.386-7.063-4.197-10.45-1.813-3.387 2.385-4.198 7.064-1.813 10.451 22.868 32.468 34.955 70.688 34.955 110.53 0 105.973-86.216 192.189-192.188 192.189-105.975-.002-192.191-86.217-192.191-192.191s86.216-192.188 192.189-192.188c52.186 0 101.017 20.573 137.498 57.931 2.893 2.962 7.641 3.02 10.606.125 2.963-2.894 3.02-7.643.126-10.606-39.329-40.271-91.971-62.45-148.23-62.45-114.245 0-207.189 92.944-207.189 207.188s92.944 207.189 207.189 207.189c46.629 0 89.706-15.489 124.367-41.584l113.103 126.048c7.107 7.921 16.881 12.443 27.521 12.73.359.01.717.015 1.075.015 10.236 0 19.822-3.967 27.093-11.239 7.526-7.525 11.512-17.529 11.224-28.168zm-122.651-57.914-12.317-13.726 23.934-23.934 13.727 12.317zm-25.587-71.044 26.023 23.351-22.786 22.786-23.351-26.023c7.153-6.241 13.875-12.962 20.114-20.114z"/></g></svg>