<svg xmlns="http://www.w3.org/2000/svg" xmlns:xlink="http://www.w3.org/1999/xlink" width="11.058" height="11.086" viewBox="0 0 11.058 11.086">
  <defs>
    <linearGradient id="linear-gradient" x1="0.5" x2="0.5" y2="1" gradientUnits="objectBoundingBox">
      <stop offset="0" stop-color="#40cc5c"/>
      <stop offset="1" stop-color="#276432"/>
    </linearGradient>
  </defs>
  <path id="Vereinigungsmenge_3" data-name="Vereinigungsmenge 3" d="M6.475,10.6a7.132,7.132,0,0,1-.22-3.935,7.126,7.126,0,0,1,3.94-.056,1.682,1.682,0,0,1-.449,3.311,1.694,1.694,0,0,1-1.7,1.84A1.735,1.735,0,0,1,6.475,10.6ZM1.949,6.382a1.682,1.682,0,0,1,.45-3.31,1.681,1.681,0,0,1,3.271-.68,7.122,7.122,0,0,1,.22,3.935,10.715,10.715,0,0,1-2.349.3A4.567,4.567,0,0,1,1.949,6.382Zm4.691-.493a7.126,7.126,0,0,1-.056-3.94,1.682,1.682,0,0,1,3.311.45,1.681,1.681,0,0,1,.68,3.271,5.138,5.138,0,0,1-2.116.374A11.925,11.925,0,0,1,6.639,5.889Z" transform="translate(-0.677 -0.677)" fill="url(#linear-gradient)"/>
</svg>
