<?xml version="1.0" encoding="iso-8859-1"?>
<!-- Uploaded to: SVG Repo, www.svgrepo.com, Generator: SVG Repo Mixer Tools -->
<svg fill="#000000" height="800px" width="800px" version="1.1" id="Layer_1" xmlns="http://www.w3.org/2000/svg" xmlns:xlink="http://www.w3.org/1999/xlink" 
	 viewBox="0 0 511.999 511.999" xml:space="preserve">
<g>
	<g>
		<path d="M468.367,77.175h-25.323V58.91c0-15.867-12.909-28.776-28.776-28.776c-15.867,0-28.776,12.909-28.776,28.776v18.265
			h-47.961V58.91c0-15.867-12.909-28.776-28.776-28.776c-15.867,0-28.776,12.909-28.776,28.776v18.265h-47.96V58.91
			c0.001-15.867-12.908-28.776-28.775-28.776s-28.776,12.909-28.776,28.776v18.265h-47.96V58.91
			c0-15.867-12.909-28.776-28.776-28.776c-15.867,0-28.776,12.909-28.776,28.776v18.265H43.632C19.572,77.175,0,96.747,0,120.807
			v27.378c0,4.768,3.865,8.633,8.633,8.633s8.633-3.865,8.633-8.633v-27.378c0-14.539,11.827-26.366,26.366-26.366h25.323v19.938
			c0,15.867,12.909,28.776,28.776,28.776s28.776-12.909,28.776-28.776V94.441h47.96v19.938c0,15.867,12.909,28.776,28.776,28.776
			s28.776-12.909,28.776-28.776V94.441h47.96v19.938c0,15.867,12.909,28.776,28.776,28.776c15.867,0,28.776-12.909,28.776-28.776
			V94.441h47.961v19.938c0,15.867,12.909,28.776,28.776,28.776c15.867,0,28.776-12.909,28.776-28.776V94.441h25.323
			c14.538,0,26.366,11.828,26.366,26.366v21.929c0,4.768,3.865,8.633,8.633,8.633s8.633-3.865,8.633-8.633v-21.929
			C511.999,96.747,492.426,77.175,468.367,77.175z M109.241,114.379c0,6.347-5.164,11.51-11.51,11.51s-11.51-5.164-11.51-11.51
			V58.91c0-6.347,5.164-11.51,11.51-11.51s11.51,5.164,11.51,11.51V114.379z M214.755,114.379c0,0.397-0.021,0.788-0.06,1.175
			c-0.551,5.41-4.865,9.724-10.275,10.275c-0.387,0.039-0.778,0.06-1.175,0.06s-0.788-0.021-1.175-0.06
			c-5.411-0.551-9.724-4.865-10.275-10.275c-0.039-0.387-0.06-0.778-0.06-1.175V58.91c0-6.347,5.164-11.51,11.51-11.51
			c6.347,0,11.51,5.164,11.51,11.51V114.379z M320.266,114.379c0,0.397-0.021,0.788-0.06,1.175
			c-0.551,5.41-4.865,9.724-10.275,10.275c-0.387,0.039-0.778,0.06-1.175,0.06c-0.397,0-0.788-0.021-1.175-0.06
			c-5.411-0.551-9.724-4.865-10.275-10.275c-0.039-0.387-0.06-0.778-0.06-1.175V58.91c0-6.347,5.164-11.51,11.51-11.51
			c6.347,0,11.51,5.164,11.51,11.51V114.379z M425.778,114.379c0,0.397-0.021,0.788-0.06,1.175
			c-0.551,5.41-4.865,9.724-10.275,10.275c-0.387,0.039-0.778,0.06-1.175,0.06s-0.788-0.021-1.175-0.06
			c-5.411-0.551-9.724-4.865-10.275-10.275c-0.039-0.387-0.06-0.778-0.06-1.175V58.91c0-6.347,5.164-11.51,11.51-11.51
			c6.347,0,11.51,5.164,11.51,11.51V114.379z"/>
	</g>
</g>
<g>
	<g>
		<path d="M503.366,168.634c-4.768,0-8.633,3.865-8.633,8.633v25.282H17.266v-19.833c0-4.768-3.865-8.633-8.633-8.633
			S0,177.948,0,182.716v247.026c0,28.741,23.382,52.123,52.123,52.123h407.753c28.74,0,52.123-23.382,52.123-52.123V177.267
			C511.999,172.499,508.134,168.634,503.366,168.634z M89.099,464.599H52.123c-19.22,0-34.857-15.637-34.857-34.857v-39.509h71.833
			V464.599z M89.099,372.968H17.266v-68.774h71.833V372.968z M89.099,286.929H17.266v-67.115h71.833V286.929z M194.611,464.599
			h-88.246v-74.366h88.246V464.599z M194.611,372.968h-88.246v-68.774h88.246V372.968z M194.611,286.929h-88.246v-67.115h88.246
			V286.929z M300.123,464.599h-88.246v-74.366h88.246V464.599z M300.123,372.968h-88.246v-68.774h88.246V372.968z M300.123,286.929
			h-88.246v-67.115h88.246V286.929z M405.636,464.599h-88.247v-74.366h88.247V464.599z M405.636,372.968h-88.247v-68.774h88.247
			V372.968z M405.636,286.929h-88.247v-67.115h88.247V286.929z M494.733,429.742c0,19.22-15.637,34.857-34.857,34.857h-36.975
			v-74.366h71.832V429.742z M494.733,372.968h-71.832v-68.774h71.832V372.968z M494.733,286.929h-71.832v-67.115h71.832V286.929z"/>
	</g>
</g>
</svg>