<?xml version="1.0" encoding="iso-8859-1"?>
<!-- Generator: Adobe Illustrator 21.0.0, SVG Export Plug-In . SVG Version: 6.00 Build 0)  -->
<svg
 xmlns="http://www.w3.org/2000/svg"
 xmlns:xlink="http://www.w3.org/1999/xlink"
 version="1.1"
 id="Capa_1"
 x="0px"
 y="0px"
 viewBox="0 0 512 512"
 style="enable-background:new 0 0 512 512;"
 xml:space="preserve"
 width="512"
 height="512"
>
 <g>
  <g>
   <path
   fill="black" stroke="black"
    d="M492.547,233.991c-15.984-43.331-70.508-76.865-154.715-50.106c44.69-41.165,53.11-79.281,53.11-102.115    c0-21.526-6.911-41.734-19.459-56.9C358.214,8.832,339.802,0,319.637,0c-32.587,0-53.725,17.725-63.805,28.895    C245.751,17.725,224.613,0,192.027,0c-20.165,0-38.577,8.832-51.846,24.87c-12.548,15.167-19.459,35.375-19.459,56.9    c0,9.511,1.399,19.209,4.158,28.825c1.142,3.981,5.294,6.284,9.278,5.141c3.982-1.142,6.283-5.296,5.141-9.277    c-2.373-8.271-3.576-16.577-3.576-24.688c0-18.043,5.688-34.855,16.017-47.338C162.106,21.901,176.414,15,192.027,15    c30.766,0,49.214,19.272,55.718,27.558c4.118,5.248,12.047,5.257,16.174,0C270.422,34.272,288.87,15,319.637,15    c15.613,0,29.921,6.901,40.288,19.432c10.328,12.483,16.017,29.295,16.017,47.338c0,22.89-9.196,46.018-27.333,68.741    c-20.557,25.755-51.766,49.751-92.777,71.342c-50.103-26.372-85.234-55.992-104.445-88.065c-2.128-3.554-6.735-4.711-10.288-2.581    c-3.554,2.128-4.709,6.734-2.581,10.288c8.764,14.632,20.508,28.727,35.133,42.223c-84.38-26.612-138.404,7.459-154.198,50.273    c-7.205,19.533-5.626,39.931,4.448,57.434c16.298,28.319,42.189,37.814,56.868,40.98c-4.605,14.323-9.363,41.562,6.937,69.884    c21.229,36.884,68.642,42.844,106.278,21.046c9.311-5.393,20.626-14.128,31.366-28.097c-3.15,12.422-6.612,24.543-10.403,36.279    c-1.273,3.942,0.89,8.169,4.831,9.442c0.767,0.248,1.544,0.365,2.307,0.365c3.167,0,6.11-2.021,7.135-5.196    c9.683-29.974,17.356-62.28,22.819-96.025c1.443-5.013,2.77-10.297,3.961-15.867c1.403,6.558,2.993,12.721,4.74,18.511    c-2.26,57.485-8.39,109.34-18.244,154.252h-37.513c3.452-6.955,8.12-17.073,13.325-30.297c1.517-3.854-0.378-8.208-4.233-9.726    c-3.852-1.516-8.208,0.378-9.726,4.232c-10.122,25.719-18.201,39.293-18.278,39.422c-1.395,2.317-1.434,5.205-0.104,7.559    s3.825,3.81,6.529,3.81H248.5c3.496,0,6.528-2.415,7.31-5.821c8.885-38.685,14.991-82.518,18.22-130.662    c13.844,26.061,30.897,40.237,43.987,47.818c37.498,21.72,84.98,15.961,106.278-21.045c16.303-28.329,11.541-55.571,6.935-69.892    c6.907-1.505,16.657-4.507,26.735-10.458c3.567-2.106,4.751-6.705,2.645-10.271c-2.106-3.567-6.705-4.75-10.272-2.645    c-11.054,6.527-21.591,8.789-26.89,9.556c-6.594,0.957-10.544,7.812-8.078,13.999c3.903,9.799,11.321,35.478-4.075,62.229    c-17.059,29.641-55.507,33.069-85.759,15.548c-19.753-11.44-35.117-30.991-45.665-58.107    c-11.959-30.747-17.071-69.873-15.201-116.319c2.171-1.377,4.331-2.72,6.484-4.037c0.063-0.037,0.124-0.075,0.185-0.114    c36.612-22.379,70.656-36.091,101.317-40.789c57.321-8.783,94.251,16.833,105.819,48.192c5.639,15.286,4.44,31.182-3.376,44.762    c-1.119,1.944-2.332,3.843-3.605,5.642c-2.393,3.381-1.592,8.062,1.79,10.455c3.38,2.392,8.061,1.592,10.455-1.79    c1.543-2.181,3.011-4.478,4.362-6.826C498.173,273.921,499.753,253.524,492.547,233.991z M186.466,410.355    c-30.242,17.515-68.706,14.083-85.759-15.548c-15.396-26.751-7.978-52.43-4.075-62.229c2.467-6.191-1.489-13.043-8.08-13.999    c-10.404-1.507-36.262-7.898-51.65-34.637c-7.815-13.579-9.014-29.475-3.376-44.761c11.581-31.395,48.534-56.967,105.819-48.192    c32.515,4.982,68.834,20.098,107.986,44.94c1.871,46.448-3.24,85.57-15.201,116.319    C221.583,379.364,206.219,398.915,186.466,410.355z"
   />
   <path
   fill="black" stroke="black"
    d="M264,159V77.5c0-4.142-3.358-7.5-7.5-7.5c-4.142,0-7.5,3.358-7.5,7.5V159c0,4.142,3.358,7.5,7.5,7.5    C260.642,166.5,264,163.142,264,159z"
   />
   <path
   fill="black" stroke="black"
    d="M190.664,259.055l-79.002,47c-3.56,2.118-4.729,6.72-2.611,10.28c2.128,3.577,6.737,4.719,10.28,2.611l79.002-47    c3.56-2.118,4.729-6.72,2.611-10.28C198.827,258.106,194.225,256.936,190.664,259.055z"
   />
   <path
   fill="black" stroke="black"
    d="M322.336,258.055c-3.56-2.119-8.162-0.949-10.28,2.611c-2.118,3.56-0.949,8.162,2.611,10.28l79.002,47    c3.536,2.105,8.149,0.971,10.28-2.611c2.118-3.56,0.949-8.162-2.611-10.28L322.336,258.055z"
   />
  </g>
 </g>
</svg>
