<svg xmlns="http://www.w3.org/2000/svg" xmlns:xlink="http://www.w3.org/1999/xlink" width="106.559" height="18.496" viewBox="0 0 106.559 18.496">
  <defs>
    <linearGradient id="linear-gradient" x1="0.5" x2="0.5" y2="1" gradientUnits="objectBoundingBox">
      <stop offset="0" stop-color="#40cc5c"/>
      <stop offset="1" stop-color="#276432"/>
    </linearGradient>
  </defs>
  <path id="Vereinigungsmenge_2" data-name="Vereinigungsmenge 2" d="M80.33,19.871q-.211-.1-.211-.2a.333.333,0,0,1,.05-.18.953.953,0,0,0,.09-.3c.026-.2.057-.437.09-.71s.067-.57.1-.89.06-.65.08-.99.03-.677.03-1.01q0-1.12-.07-1.9a4.943,4.943,0,0,0-.249-1.26,1.392,1.392,0,0,0-.491-.69,1.377,1.377,0,0,0-.79-.21h-.18a.644.644,0,0,0-.159.02.107.107,0,0,1-.121-.12.192.192,0,0,1,.121-.18q.22-.14.68-.41t.95-.52q.49-.25.949-.45a1.962,1.962,0,0,1,.68-.2.619.619,0,0,1,.44.17,1.059,1.059,0,0,1,.27.43,2.914,2.914,0,0,1,.13.59,5.336,5.336,0,0,1,.04.65c0,.16,0,.327-.011.5s-.01.36-.01.56a15.1,15.1,0,0,1,1.62-2.05,2.014,2.014,0,0,1,1.36-.73.714.714,0,0,1,.471.2c.153.133.317.283.49.45a5,5,0,0,0,.54.45.987.987,0,0,0,.58.2.89.89,0,0,0,.38-.06l.2-.1c.107,0,.16.073.16.22v.021q-.22.18-.52.45t-.63.519a4.856,4.856,0,0,1-.67.43,1.4,1.4,0,0,1-.661.18.966.966,0,0,1-.5-.13,3.691,3.691,0,0,1-.41-.28q-.19-.15-.37-.28a.634.634,0,0,0-.38-.13,1.145,1.145,0,0,0-.91.44,3.429,3.429,0,0,0-.6,1.12,8.1,8.1,0,0,0-.34,1.481,11.384,11.384,0,0,0-.11,1.54,8.237,8.237,0,0,0,.05,1.01,2.341,2.341,0,0,0,.149.62.578.578,0,0,0,.27.311.962.962,0,0,0,.41.079,2.188,2.188,0,0,0,.56-.079c.04-.014.07.013.09.079a.606.606,0,0,1,.03.16c0,.027-.02.057-.059.09s-.067.05-.08.05q-.44.18-.9.39t-.761.35q-.279.12-.67.26a2.031,2.031,0,0,1-.671.139A1.228,1.228,0,0,1,80.33,19.871Zm-61.34-.059a.5.5,0,0,1-.13-.381v-.27c0-.126,0-.259.01-.4s.01-.274.01-.4v-.291a5.791,5.791,0,0,1-.581.481,7.633,7.633,0,0,1-2.11,1.09,4.008,4.008,0,0,1-1.27.21,3.171,3.171,0,0,1-1.32-.3,3.716,3.716,0,0,1-1.19-.87,4.04,4.04,0,0,1-.438-.565c-.171.105-.383.23-.632.375s-.534.3-.84.47-.61.323-.91.47a8.812,8.812,0,0,1-.831.36,1.858,1.858,0,0,1-.6.14.588.588,0,0,1-.45-.21,1.857,1.857,0,0,1-.33-.561,5.069,5.069,0,0,1-.24-.81q-.1-.459-.18-.959-.359.3-.92.71a10.971,10.971,0,0,1-1.22.77,9.716,9.716,0,0,1-1.35.61,3.907,3.907,0,0,1-1.33.25,2.394,2.394,0,0,1-.941-.17,2.015,2.015,0,0,1-.67-.45,1.777,1.777,0,0,1-.4-.65,2.316,2.316,0,0,1-.13-.77,1.462,1.462,0,0,1,.39-1.05,4.878,4.878,0,0,1,1.211-.85q.379-.2,1.06-.53t1.39-.67q.71-.34,1.32-.651t.89-.49a9.206,9.206,0,0,0-.281-1.11,2.912,2.912,0,0,0-.4-.82,1.6,1.6,0,0,0-.58-.5,1.867,1.867,0,0,0-.841-.17,2.011,2.011,0,0,0-.81.16,2.691,2.691,0,0,0-.64.38,2.156,2.156,0,0,0-.42.44.964.964,0,0,0-.169.34.164.164,0,0,1-.18.16.793.793,0,0,1-.52-.2.605.605,0,0,1-.24-.48.553.553,0,0,1,.04-.24q.459-.259,1.12-.56t1.37-.56a12.987,12.987,0,0,1,1.41-.43,5.387,5.387,0,0,1,1.26-.17,2.79,2.79,0,0,1,1.29.24,1.538,1.538,0,0,1,.671.679,2.821,2.821,0,0,1,.27,1.031q.05.59.09,1.27.059,1.021.159,1.97a10.712,10.712,0,0,0,.3,1.68,3.921,3.921,0,0,0,.509,1.18.914.914,0,0,0,.77.45,1.644,1.644,0,0,0,.48-.08,4.1,4.1,0,0,0,.5-.19q.185-.085.34-.17-.109-.211-.2-.44a4.812,4.812,0,0,1-.319-1.8,5.985,5.985,0,0,1,.45-2.36,4.777,4.777,0,0,1,1.32-1.8,6.087,6.087,0,0,1,2.119-1.14,9.426,9.426,0,0,1,2.87-.4h.54c.174,0,.333.006.48.02v-.65c0-.314,0-.637-.01-.97s-.014-.64-.02-.92-.01-.454-.01-.52a2.935,2.935,0,0,0-.27-1.121.823.823,0,0,0-.77-.319c-.053,0-.083-.06-.09-.18a.3.3,0,0,1,.13-.28,1.24,1.24,0,0,1,.36-.15,2.657,2.657,0,0,1,.6-.05q.76,0,1.271-.01t.84-.04a3.6,3.6,0,0,0,.53-.08,2.336,2.336,0,0,0,.34-.11.177.177,0,0,1,.169.049.405.405,0,0,1,.1.18.468.468,0,0,1,.01.211.142.142,0,0,1-.121.12,1.492,1.492,0,0,0-.329.09.545.545,0,0,0-.211.19,2.111,2.111,0,0,0-.18.74q-.08.6-.159,1.48t-.14,1.949q-.059,1.071-.1,2.15t-.07,2.1q-.03,1.019-.03,1.779a5.4,5.4,0,0,0,.319,2.15,1.039,1.039,0,0,0,.98.69,2.018,2.018,0,0,0,.53-.08,3.955,3.955,0,0,0,.54-.19c.167-.073.32-.147.46-.22A1.992,1.992,0,0,0,24,17.631c.067-.053.126-.02.18.1s.047.2-.021.239q-.239.14-.75.41t-1.129.57q-.76.381-1.541.68a3.725,3.725,0,0,1-1.26.3A.737.737,0,0,1,18.99,19.812ZM5.7,14.371q-.4.161-.8.35t-.76.38q-.36.19-.6.35a2.957,2.957,0,0,0-.7.6,1.116,1.116,0,0,0-.24.72,1.619,1.619,0,0,0,.34,1.02A1.254,1.254,0,0,0,4,18.231a2.453,2.453,0,0,0,.79-.139,5.762,5.762,0,0,0,.76-.32,5.432,5.432,0,0,0,.609-.36,2.807,2.807,0,0,0,.36-.28c.107-.107.191-.2.25-.27a.408.408,0,0,0,.07-.31c-.04-.226-.08-.472-.12-.74s-.08-.52-.121-.76-.076-.446-.11-.62-.057-.287-.07-.34C6.206,14.171,5.967,14.265,5.7,14.371Zm9.4-3.54a2.038,2.038,0,0,0-.83.58,2.862,2.862,0,0,0-.551,1.03,5.183,5.183,0,0,0-.2,1.55,5.336,5.336,0,0,0,.26,1.71,4.186,4.186,0,0,0,.72,1.33,3.226,3.226,0,0,0,1.1.869,3.166,3.166,0,0,0,1.4.31,1.69,1.69,0,0,0,.56-.09,2.309,2.309,0,0,0,.47-.22,2.692,2.692,0,0,0,.37-.27,1.109,1.109,0,0,0,.22-.239,1.59,1.59,0,0,0,.24-.51,4.483,4.483,0,0,0,.12-.79c.027-.28.04-.623.04-1.03v-1.07c0-.307,0-.634-.01-.98s-.016-.587-.03-.72a1.248,1.248,0,0,0-.28-.64,2.194,2.194,0,0,0-.62-.52,3.518,3.518,0,0,0-.89-.35,4.33,4.33,0,0,0-1.07-.13A2.884,2.884,0,0,0,15.1,10.832Zm43.259,8.8a3.548,3.548,0,0,1-1.12-.77,3.482,3.482,0,0,1-.75-1.17,3.976,3.976,0,0,1-.27-1.48,5.372,5.372,0,0,1,.239-1.62,8.673,8.673,0,0,1,.55-1.36,9.849,9.849,0,0,1,.59-1.011,5.967,5.967,0,0,0,.38-.609c-.253-.014-.483-.023-.689-.031s-.4-.01-.59-.01q-.64,0-1.08.01a3.861,3.861,0,0,0-.78.09.739.739,0,0,0-.3.16,1.831,1.831,0,0,1-.24.18l-.11-.11a.211.211,0,0,1-.07-.15.083.083,0,0,1,.021-.06,1.613,1.613,0,0,1,.259-.229q.261-.211.651-.5t.86-.64q.47-.35.9-.65t.74-.51a2.954,2.954,0,0,1,.41-.249.265.265,0,0,1,.24.04c.08.053.106.094.08.12a1.7,1.7,0,0,0-.18.15c-.08.073-.107.137-.08.19a2.079,2.079,0,0,0,.76.32,10.257,10.257,0,0,0,1.22.23q.679.09,1.4.14t1.3.049q.86,0,1.38-.049a6.514,6.514,0,0,0,.86-.131,3.913,3.913,0,0,0,.419-.12c.013,0,.04.02.08.06a.189.189,0,0,1,.06.139c0,.027-.1.094-.29.2s-.391.22-.59.34c-.12.067-.264.154-.43.26s-.347.21-.54.311a5.686,5.686,0,0,1-.61.27,2.206,2.206,0,0,1-.619.14q-.3.04-.7.06t-.841.03l-.889.02c-.3.007-.577.01-.831.01-.04.068-.1.177-.19.33a3.448,3.448,0,0,0-.25.59,8.085,8.085,0,0,0-.22.82,4.712,4.712,0,0,0-.1,1,4.387,4.387,0,0,0,.25,1.51,3.576,3.576,0,0,0,.7,1.19,3.2,3.2,0,0,0,2.41,1.06,3.253,3.253,0,0,0,.81-.1,4.517,4.517,0,0,0,.74-.26,5.483,5.483,0,0,0,.651-.35,5.42,5.42,0,0,0,.519-.37l.24-.22c.027-.026.05-.023.07.01a.348.348,0,0,1,.04.14.6.6,0,0,1-.01.19.3.3,0,0,1-.08.16,8.685,8.685,0,0,1-1,.8,14.565,14.565,0,0,1-1.24.779c-.12.067-.286.154-.5.26s-.45.211-.71.31a8.143,8.143,0,0,1-.8.26,3,3,0,0,1-.77.11A3.367,3.367,0,0,1,58.36,19.632Zm-7.549.059a.741.741,0,0,1-.17-.46,2.028,2.028,0,0,1,.049-.4q.05-.24.131-.78.08-.579.149-1.36t.07-1.68a4.577,4.577,0,0,0-.65-2.669,1.941,1.941,0,0,0-1.63-.91,2.423,2.423,0,0,0-1.1.239,2.524,2.524,0,0,0-.821.65,3.3,3.3,0,0,0-.54.941,4.42,4.42,0,0,0-.259,1.13c-.014.121-.027.227-.041.32s-.023.2-.03.32-.014.27-.02.45-.011.417-.011.709a11.317,11.317,0,0,0,.05,1.181,3.157,3.157,0,0,0,.15.73.735.735,0,0,0,.249.37.657.657,0,0,0,.371.1,1.23,1.23,0,0,0,.3-.041c.027,0,.049.037.07.111s.016.123-.01.149a3.289,3.289,0,0,1-.471.291,8.4,8.4,0,0,1-.789.37,9.611,9.611,0,0,1-.911.319,2.851,2.851,0,0,1-.789.14,1.117,1.117,0,0,1-.44-.07c-.107-.047-.16-.1-.16-.17s.006-.106.02-.12a.476.476,0,0,0,.06-.1,1.051,1.051,0,0,0,.06-.25c.013-.1.033-.217.059-.35.027-.186.053-.423.08-.71s.053-.6.08-.94.05-.694.07-1.06.03-.724.03-1.07q0-.22-.01-.55c-.006-.22-.017-.5-.03-.851a4.449,4.449,0,0,0-.131-.99,2.172,2.172,0,0,0-.28-.66,1.181,1.181,0,0,0-.38-.37.9.9,0,0,0-.292-.109l-.038.029q-.32.2-.92.5t-1.33.63q-.73.329-1.51.66t-1.47.63q-.69.3-1.2.53t-.69.33a3.017,3.017,0,0,0,.27,1.27,3.184,3.184,0,0,0,.75,1.03,3.485,3.485,0,0,0,1.15.69,4.183,4.183,0,0,0,1.471.25,5.2,5.2,0,0,0,1.3-.15,5.5,5.5,0,0,0,.98-.34,5.6,5.6,0,0,0,.63-.34,1.605,1.605,0,0,1,.25-.149.246.246,0,0,1,.159.069.2.2,0,0,1,.08.15q-.22.24-.68.66a8.356,8.356,0,0,1-1.111.841,7.51,7.51,0,0,1-1.45.72,4.8,4.8,0,0,1-1.7.3,5.183,5.183,0,0,1-1.6-.25,4.19,4.19,0,0,1-1.4-.76,3.666,3.666,0,0,1-.99-1.3,4.425,4.425,0,0,1-.37-1.89,8.663,8.663,0,0,1,.12-1.55,5.844,5.844,0,0,1,.32-1.139,4.123,4.123,0,0,1,.45-.841,6.354,6.354,0,0,1,.51-.63,4.4,4.4,0,0,1,.779-.68,7.661,7.661,0,0,1,.99-.58,5.8,5.8,0,0,1,1.121-.41,4.812,4.812,0,0,1,1.19-.15,3.332,3.332,0,0,1,1.69.36,1.111,1.111,0,0,1,.609,1,1.255,1.255,0,0,1-.239.74,4.163,4.163,0,0,0,.509-.2q.311-.14.63-.29c.213-.1.4-.19.571-.27l.148-.074.2-.123.007,0,.133-.079q.44-.261.9-.481t.87-.38a1.922,1.922,0,0,1,.63-.16q.581,0,.58.661c0,.067-.006.186-.02.36s-.023.35-.03.53-.017.35-.031.509-.02.267-.02.32q.42-.4.9-.82a8.084,8.084,0,0,1,1.04-.77,6.04,6.04,0,0,1,1.18-.57,3.8,3.8,0,0,1,1.28-.22,2.841,2.841,0,0,1,1.97.69,2.8,2.8,0,0,1,.77,2.19q0,.4-.05.94t-.11,1.12q-.061.581-.11,1.14t-.05,1q0,1.6,1.04,1.6a1.688,1.688,0,0,0,.45-.07,4.994,4.994,0,0,0,.48-.16q.229-.089.41-.18a.988.988,0,0,0,.24-.149c.014-.014.03,0,.05.03a.494.494,0,0,1,.049.13.338.338,0,0,1,.01.14.151.151,0,0,1-.03.08c-.107.067-.337.194-.69.38s-.746.377-1.18.57-.863.367-1.29.52a3.21,3.21,0,0,1-1.02.23A.756.756,0,0,1,50.81,19.691ZM37,10.781a1.928,1.928,0,0,0-.6.62,4.018,4.018,0,0,0-.47,1.14,6.774,6.774,0,0,0-.19,1.73q.34-.12.77-.29t.84-.37q.41-.2.75-.38a3.694,3.694,0,0,0,.52-.32,1.013,1.013,0,0,0,.36-.88,1.513,1.513,0,0,0-.09-.5,1.454,1.454,0,0,0-.27-.471,1.386,1.386,0,0,0-.44-.339,1.268,1.268,0,0,0-.58-.131A1.192,1.192,0,0,0,37,10.781ZM90.12,19.6a4.2,4.2,0,0,1-1.4-.76,3.666,3.666,0,0,1-.99-1.3,4.425,4.425,0,0,1-.37-1.89,8.663,8.663,0,0,1,.12-1.55,5.782,5.782,0,0,1,.32-1.139,4.08,4.08,0,0,1,.45-.841,6.482,6.482,0,0,1,.509-.63,4.406,4.406,0,0,1,.78-.68,7.6,7.6,0,0,1,.99-.58,5.766,5.766,0,0,1,1.12-.41,4.819,4.819,0,0,1,1.191-.15,3.328,3.328,0,0,1,1.689.36,1.112,1.112,0,0,1,.61,1,1.256,1.256,0,0,1-.24.74,4.167,4.167,0,0,0,.51-.2q.311-.14.63-.29t.57-.27a6.668,6.668,0,0,0,1.556-.98s.285.122.185.313a3.566,3.566,0,0,1-.545.587l-1.066.64q-.32.2-.92.5t-1.33.63q-.73.329-1.51.66t-1.47.63q-.69.3-1.2.53c-.339.153-.57.263-.689.33a3.017,3.017,0,0,0,.27,1.27,3.184,3.184,0,0,0,.75,1.03,3.485,3.485,0,0,0,1.15.69,4.177,4.177,0,0,0,1.47.25,5.2,5.2,0,0,0,1.3-.15,5.547,5.547,0,0,0,.98-.34,5.682,5.682,0,0,0,.63-.34,1.677,1.677,0,0,1,.249-.149.246.246,0,0,1,.16.069.2.2,0,0,1,.08.15q-.22.24-.68.66a8.284,8.284,0,0,1-1.11.841,7.511,7.511,0,0,1-1.45.72,4.807,4.807,0,0,1-1.7.3A5.193,5.193,0,0,1,90.12,19.6Zm.76-8.82a1.928,1.928,0,0,0-.6.62,4.018,4.018,0,0,0-.47,1.14,6.774,6.774,0,0,0-.19,1.73q.34-.12.77-.29t.841-.37q.409-.2.75-.38a3.748,3.748,0,0,0,.52-.32,1.015,1.015,0,0,0,.36-.88,1.536,1.536,0,0,0-.09-.5,1.454,1.454,0,0,0-.27-.471,1.406,1.406,0,0,0-.44-.339,1.274,1.274,0,0,0-.581-.131A1.191,1.191,0,0,0,90.88,10.781ZM74.92,19.571a.991.991,0,0,1-.259-.7,2.3,2.3,0,0,1,.01-.239c.006-.067.016-.154.03-.26.013-.133.037-.377.07-.73s.067-.751.1-1.191.063-.883.09-1.329.04-.831.04-1.15v-.7a6.321,6.321,0,0,0-.059-.92,1.617,1.617,0,0,0-.2-.62.825.825,0,0,0-.249-.23.667.667,0,0,0-.288-.087.806.806,0,0,1-.162.157q-.32.2-.921.5t-1.329.63q-.73.329-1.51.66t-1.47.63q-.691.3-1.2.53t-.689.33a3.017,3.017,0,0,0,.27,1.27,3.17,3.17,0,0,0,.75,1.03,3.467,3.467,0,0,0,1.15.69,4.174,4.174,0,0,0,1.47.25,5.2,5.2,0,0,0,1.3-.15,5.451,5.451,0,0,0,1.61-.68,1.655,1.655,0,0,1,.25-.149.248.248,0,0,1,.16.069.2.2,0,0,1,.08.15q-.22.24-.68.66a8.4,8.4,0,0,1-1.11.841,7.563,7.563,0,0,1-1.45.72,4.807,4.807,0,0,1-1.7.3,5.189,5.189,0,0,1-1.6-.25,4.186,4.186,0,0,1-1.4-.76,3.656,3.656,0,0,1-.99-1.3,4.411,4.411,0,0,1-.371-1.89,8.655,8.655,0,0,1,.121-1.55,5.845,5.845,0,0,1,.319-1.139,4.124,4.124,0,0,1,.45-.841,6.485,6.485,0,0,1,.51-.63,4.406,4.406,0,0,1,.78-.68,7.542,7.542,0,0,1,.99-.58,5.766,5.766,0,0,1,1.12-.41,4.817,4.817,0,0,1,1.19-.15,3.332,3.332,0,0,1,1.69.36,1.112,1.112,0,0,1,.61,1,1.256,1.256,0,0,1-.24.74,4.224,4.224,0,0,0,.51-.2q.311-.14.63-.29t.57-.27a2.384,2.384,0,0,0,.33-.18.093.093,0,0,1,.09-.03l.007,0,.784-.392q.559-.279,1.08-.49a2.348,2.348,0,0,1,.74-.211.324.324,0,0,1,.3.13.544.544,0,0,1,.08.29v.08a5.252,5.252,0,0,1-.06.64q-.059.44-.13,1.08T77,13.412q-.061.84-.06,1.82v.959q0,.421.02.81a1.955,1.955,0,0,0,.14.67,1.044,1.044,0,0,0,.36.45,1.161,1.161,0,0,0,.679.17,2.893,2.893,0,0,0,.5-.05,4.188,4.188,0,0,0,.53-.13c.166-.053.313-.107.44-.16a.941.941,0,0,0,.229-.12c.04-.041.067-.041.08,0a.341.341,0,0,1,.01.149.6.6,0,0,1-.049.18.3.3,0,0,1-.1.131q-.2.1-.7.36t-1.18.54a12.305,12.305,0,0,1-1.25.47,3.533,3.533,0,0,1-1.011.19A.937.937,0,0,1,74.92,19.571Zm-6.739-8.79a1.919,1.919,0,0,0-.6.62,3.967,3.967,0,0,0-.47,1.14,6.774,6.774,0,0,0-.19,1.73c.226-.08.483-.176.77-.29s.567-.237.84-.37.524-.26.751-.38a3.748,3.748,0,0,0,.52-.32,1.015,1.015,0,0,0,.36-.88,1.536,1.536,0,0,0-.09-.5,1.454,1.454,0,0,0-.27-.471,1.406,1.406,0,0,0-.44-.339,1.274,1.274,0,0,0-.58-.131A1.191,1.191,0,0,0,68.18,10.781ZM26.67,19.8a.445.445,0,0,1-.09-.17q-.18-.56-.41-1.24t-.49-1.38q-.259-.7-.53-1.391t-.529-1.29a12.466,12.466,0,0,0-1.191-2.35q-.49-.671-.91-.67a.655.655,0,0,0-.229.04c-.074.026-.144.053-.211.08-.026,0-.063-.031-.11-.09s-.057-.1-.03-.131.139-.1.38-.26.52-.337.84-.53.643-.37.97-.53a1.942,1.942,0,0,1,.79-.239q.46,0,.84.85t.9,2.35l1.54,4.6c.054-.079.157-.243.31-.49s.327-.55.52-.91.393-.75.6-1.17.4-.843.571-1.27.316-.83.429-1.21a3.537,3.537,0,0,0,.17-.99,1.321,1.321,0,0,0-.08-.509.635.635,0,0,0-.229-.291.972.972,0,0,0-.35-.139,2.114,2.114,0,0,0-.42-.04,1.425,1.425,0,0,0-.239.021,1.672,1.672,0,0,0-.24.059.171.171,0,0,1-.19-.03c-.047-.047-.07-.084-.07-.11,0-.053.09-.121.27-.2a3.85,3.85,0,0,1,.74-.22q.47-.1,1.08-.17a11.107,11.107,0,0,1,1.27-.07q.941,0,.94.62a2.5,2.5,0,0,1-.37.96q-.37.68-.941,1.59t-1.26,1.93q-.69,1.021-1.35,1.97t-1.21,1.75q-.551.8-.83,1.24c-.04.054-.187.08-.44.08A.311.311,0,0,1,26.67,19.8Zm74.106-6.65a2.261,2.261,0,0,1-.507-.731,7.113,7.113,0,0,1-.22-3.935,7.133,7.133,0,0,1,3.94-.055,1.682,1.682,0,0,1-.45,3.31,1.7,1.7,0,0,1-1.7,1.84A1.542,1.542,0,0,1,100.776,13.152ZM67.64,9.051a.717.717,0,0,1-.16-.11.7.7,0,0,1-.121-.131.073.073,0,0,1,0-.1q.32-.259.87-.8T69.34,6.8q.56-.57.99-1.01l.49-.5c.04-.013.113.027.22.121s.22.2.34.329a3.522,3.522,0,0,1,.32.391.65.65,0,0,1,.139.28q0,.059-.49.41t-1.16.78q-.67.431-1.35.84t-1.06.61a.113.113,0,0,1-.065.02A.166.166,0,0,1,67.64,9.051Zm7.809-.71c-.153-.126-.31-.27-.47-.43s-.3-.316-.43-.47a.732.732,0,0,1-.19-.31c0-.067.087-.17.26-.311s.364-.286.57-.44a6.8,6.8,0,0,1,.6-.4,3.232,3.232,0,0,1,.35-.19.962.962,0,0,1,.33.22,6.366,6.366,0,0,1,.47.46c.16.174.3.34.42.5a.79.79,0,0,1,.18.32q0,.1-.24.3T76.75,8q-.31.211-.6.371a1.062,1.062,0,0,1-.41.159A.8.8,0,0,1,75.45,8.341ZM95.743,8.2a2.27,2.27,0,0,1-.764-.454,1.671,1.671,0,0,1,1.214-2.856,1.682,1.682,0,0,1,3.271-.68,7.132,7.132,0,0,1,.22,3.935,10.726,10.726,0,0,1-2.35.3A4.582,4.582,0,0,1,95.743,8.2Zm4.691-.493a7.126,7.126,0,0,1-.056-3.94,1.682,1.682,0,0,1,3.31.45,1.681,1.681,0,0,1,.679,3.271,5.162,5.162,0,0,1-2.118.373A11.9,11.9,0,0,1,100.434,7.708Z" transform="translate(0.5 -1.975)" stroke="rgba(0,0,0,0)" stroke-miterlimit="10" stroke-width="1" fill="url(#linear-gradient)"/>
</svg>
