<svg height="512pt" viewBox="0 0 512 512" width="512pt" xmlns="http://www.w3.org/2000/svg"><path d="m236 345.980469v-70h-70c-11.046875 0-20-8.953125-20-20 0-11.042969 8.953125-20 20-20h70v-70c0-11.042969 8.953125-20 20-20s20 8.957031 20 20v70h70c11.046875 0 20 8.957031 20 20 0 11.046875-8.953125 20-20 20h-70v70c0 11.046875-8.953125 20-20 20s-20-8.953125-20-20zm201.019531-271c-48.351562-48.351563-112.640625-74.980469-181.019531-74.980469s-132.667969 26.628906-181.019531 74.980469c-48.351563 48.351562-74.980469 112.640625-74.980469 181.019531s26.628906 132.667969 74.980469 181.019531c48.351562 48.351563 112.640625 74.980469 181.019531 74.980469 46.8125 0 92.617188-12.757812 132.460938-36.894531 9.449218-5.722657 12.46875-18.019531 6.746093-27.464844-5.722656-9.449219-18.023437-12.46875-27.46875-6.746094-33.59375 20.347657-72.234375 31.105469-111.738281 31.105469-119.101562 0-216-96.898438-216-216s96.898438-216 216-216 216 96.898438 216 216c0 42.589844-12.664062 84.042969-36.625 119.886719-6.140625 9.179687-3.671875 21.601562 5.511719 27.742187 9.179687 6.136719 21.601562 3.667969 27.742187-5.511718 28.371094-42.441407 43.371094-91.585938 43.371094-142.117188 0-68.378906-26.628906-132.667969-74.980469-181.019531zm0 0"/></svg>