<svg id="Capa_1" enable-background="new 0 0 512 512" height="512" viewBox="0 0 512 512" width="512" xmlns="http://www.w3.org/2000/svg"><path d="m411.185 220.537c-3.898-1.42-8.197.591-9.613 4.482l-13.637 37.467-13.637-37.467c-1.078-2.963-3.895-4.934-7.048-4.934s-5.97 1.972-7.048 4.934l-13.637 37.467-13.637-37.467c-1.416-3.892-5.72-5.896-9.613-4.482-3.892 1.417-5.899 5.721-4.482 9.613l20.685 56.83c1.078 2.963 3.895 4.935 7.048 4.935s5.97-1.972 7.048-4.935l13.637-37.467 13.637 37.467c1.078 2.963 3.895 4.935 7.048 4.935s5.97-1.972 7.048-4.935l20.685-56.83c1.415-3.892-.593-8.196-4.484-9.613zm67.18-33.375c-7.871-25.404-20.202-49.361-36.162-70.662-.345-.623-.774-1.192-1.274-1.69-12.438-16.293-27.011-30.994-43.35-43.536-40.914-31.404-89.87-48.003-141.576-48.004h-.003c-37.727 0-75.195 9.237-108.352 26.712-3.665 1.931-5.07 6.467-3.138 10.132 1.931 3.663 6.469 5.069 10.131 3.138 25.118-13.237 52.887-21.417 81.291-24.048-20.694 20.712-39.721 45.999-55.546 73.422h-88.183c9.818-11.232 20.79-21.489 32.761-30.524 3.306-2.495 3.963-7.198 1.468-10.505-2.496-3.305-7.196-3.962-10.505-1.468-16.984 12.82-32.085 27.94-44.912 44.753-.426.435-.795.924-1.106 1.453-16.015 21.331-28.378 45.337-36.274 70.827-18.744 1.177-33.635 16.792-33.635 35.827v66.02c0 19.036 14.891 34.651 33.635 35.828 7.87 25.402 20.201 49.359 36.16 70.659.345.624.775 1.195 1.277 1.694 12.438 16.293 27.01 30.993 43.35 43.534 40.915 31.404 89.871 48.004 141.578 48.004 41.421 0 82.096-11.021 117.626-31.872 3.572-2.097 4.768-6.692 2.673-10.265-2.098-3.573-6.693-4.768-10.265-2.673-27.467 16.12-58.229 25.95-89.957 28.878 20.689-20.713 39.715-46.003 55.539-73.424h88.276c-7.694 8.768-16.125 16.972-25.259 24.523-3.192 2.639-3.642 7.366-1.002 10.559 1.482 1.794 3.625 2.722 5.784 2.722 1.684 0 3.376-.564 4.775-1.72 35.239-29.132 60.797-67.287 74.178-110.619 18.742-1.178 33.632-16.792 33.632-35.827v-66.02c0-19.036-14.892-34.651-33.635-35.828zm-46.581-59.535c13.235 18.111 23.688 38.206 30.796 59.456h-98.057c-6.252-20.083-14.64-40.166-24.673-59.456zm-43.34-44.452c11.419 8.765 21.915 18.657 31.348 29.452h-88.177c-15.831-27.434-34.867-52.729-55.57-73.445 40.938 3.694 79.458 18.708 112.399 43.993zm-132.444-42.405c21.52 19.485 41.514 44.384 58.222 71.857h-116.445c16.708-27.473 36.702-52.372 58.223-71.857zm-66.878 86.857h133.756c10.472 19.162 19.286 39.271 25.896 59.456h-185.548c6.61-20.185 15.424-40.294 25.896-59.456zm-108.911 0h91.938c-10.033 19.29-18.421 39.372-24.673 59.456h-98.057c7.111-21.266 17.56-41.352 30.792-59.456zm.005 256.746c-13.235-18.111-23.688-38.207-30.796-59.456h98.058c6.252 20.083 14.639 40.166 24.672 59.456zm43.34 44.452c-11.42-8.765-21.915-18.657-31.348-29.452h88.177c15.829 27.43 34.862 52.728 55.558 73.444-40.933-3.696-79.449-18.709-112.387-43.992zm132.444 42.405c-21.521-19.485-41.515-44.384-58.223-71.858h116.445c-16.708 27.474-36.702 52.373-58.222 71.858zm66.878-86.857h-133.756c-10.472-19.162-19.288-39.272-25.9-59.456h185.556c-6.612 20.184-15.428 40.294-25.9 59.456zm109.049 0h-92.077c10.033-19.29 18.42-39.372 24.672-59.456h98.067c-7.125 21.414-17.462 41.414-30.662 59.456zm65.073-95.363c0 11.528-9.379 20.907-20.907 20.907h-3.529c-.005 0-.011 0-.017 0h-113.698c-.012 0-.024 0-.036 0h-205.627c-.012 0-.024 0-.036 0h-113.7c-.006 0-.011 0-.017 0h-3.527c-11.527 0-20.906-9.379-20.906-20.907v-66.02c0-11.527 9.379-20.906 20.907-20.906h3.319c.009 0 .019.002.028.002.008 0 .016-.002.024-.002h113.882.02 205.751c.008 0 .016.002.024.002.009 0 .018-.002.028-.002h113.74c.008 0 .016.002.024.002.009 0 .019-.002.028-.002h3.318c11.528 0 20.907 9.379 20.907 20.906zm-197.065-68.473c-3.897-1.42-8.197.591-9.613 4.482l-13.637 37.467-13.637-37.467c-1.078-2.963-3.895-4.934-7.048-4.934s-5.969 1.972-7.048 4.934l-13.637 37.467-13.636-37.467c-1.417-3.893-5.723-5.898-9.613-4.482-3.893 1.417-5.899 5.721-4.483 9.613l20.684 56.83c1.079 2.963 3.895 4.935 7.048 4.935s5.969-1.972 7.048-4.935l13.637-37.466 13.637 37.467c1.078 2.963 3.895 4.935 7.048 4.935s5.97-1.972 7.048-4.935l20.685-56.83c1.416-3.893-.592-8.197-4.483-9.614zm-111.251 0c-3.893-1.415-8.196.591-9.613 4.482l-13.636 37.467-13.637-37.467c-1.079-2.963-3.895-4.934-7.048-4.934s-5.969 1.972-7.048 4.934l-13.637 37.467-13.636-37.467c-1.417-3.893-5.722-5.898-9.613-4.482-3.893 1.417-5.899 5.721-4.483 9.613l20.684 56.83c1.079 2.963 3.895 4.935 7.048 4.935s5.969-1.972 7.048-4.935l13.637-37.467 13.637 37.467c1.079 2.963 3.895 4.935 7.048 4.935s5.969-1.972 7.048-4.935l20.684-56.83c1.416-3.892-.591-8.196-4.483-9.613z"/></svg>